<?xml version="1.0" encoding="UTF-8" standalone="no"?>
<!-- Created with Inkscape (http://www.inkscape.org/) -->

<svg
   version="1.1"
   id="svg1"
   width="1412"
   height="1788"
   viewBox="0 0 1412 1788"
   sodipodi:docname="old-man-10d.svg"
   inkscape:version="1.3.2 (091e20ef0f, 2023-11-25)"
   xmlns:inkscape="http://www.inkscape.org/namespaces/inkscape"
   xmlns:sodipodi="http://sodipodi.sourceforge.net/DTD/sodipodi-0.dtd"
   xmlns="http://www.w3.org/2000/svg"
   xmlns:svg="http://www.w3.org/2000/svg">
  <defs
     id="defs1" />
  <sodipodi:namedview
     id="namedview1"
     pagecolor="#ffffff"
     bordercolor="#000000"
     borderopacity="0.25"
     inkscape:showpageshadow="2"
     inkscape:pageopacity="0.0"
     inkscape:pagecheckerboard="0"
     inkscape:deskcolor="#d1d1d1"
     showgrid="false"
     inkscape:zoom="0.4700973"
     inkscape:cx="704.10955"
     inkscape:cy="660.50155"
     inkscape:window-width="1920"
     inkscape:window-height="1011"
     inkscape:window-x="0"
     inkscape:window-y="0"
     inkscape:window-maximized="1"
     inkscape:current-layer="layer2" />
  <g
     inkscape:groupmode="layer"
     id="layer2"
     inkscape:label="Layer 1"
     style="fill:#ff00ff">
    <path
       style="fill:#000000"
       d="m 620.33333,1699.0052 c -2.68104,-0.9021 -1.95076,-5.7129 2.46125,-16.2138 6.64174,-15.8078 7.20472,-36.568 1.4497,-53.458 l -2.49871,-7.3333 -7.05325,-1.015 c -9.00132,-1.2955 -19.06444,-6.7716 -24.83739,-13.516 -2.48688,-2.9053 -4.5216,-5.7744 -4.5216,-6.3758 0,-0.6013 -0.47555,-1.0933 -1.05679,-1.0933 -0.58124,0 -1.78253,2.7135 -2.66955,6.0299 -3.7786,14.1278 -18.26237,10.0684 -26.68422,-7.4788 -3.72927,-7.7701 -3.83779,-7.8631 -5.33614,-4.5746 -2.51473,5.5193 -6.19449,4.0762 -17.79005,-6.9765 -16.63972,-15.8607 -24.80486,-27.5914 -32.69705,-46.975 -1.28023,-3.1444 -1.46303,-2.9592 -3.68631,3.7345 -1.30368,3.925 -3.01971,6.8292 -3.87625,6.5602 -3.2354,-1.0163 -15.85068,-19.6087 -22.8342,-33.653 -4.01112,-8.0667 -9.76731,-22.1667 -12.79153,-31.3334 l -5.49858,-16.6666 -1.75211,-38 c -2.06557,-44.7984 -3.6165,-52.1365 -13.03341,-61.667 l -5.59888,-5.6664 -0.81031,16.6667 c -0.91368,18.793 -4.39734,31.4254 -12.84789,46.5891 -6.6623,11.9548 -13.51381,18.9056 -23.76384,24.1082 -7.29569,3.7031 -10.62487,4.5512 -19.6931,5.0163 -13.75719,0.7057 -23.73399,-1.7539 -41.66527,-10.272 l -13.41881,-6.3744 -11.91452,3.064 c -21.82926,5.6137 -47.32124,3.6334 -59.73546,-4.6403 l -3.82094,-2.5466 3.15427,-0.9986 c 6.96204,-2.2041 20.05044,-11.8896 29.6628,-21.9507 5.58698,-5.8479 10.15814,-11.1753 10.15814,-11.8388 0,-0.6635 -4.40714,0.1932 -9.79366,1.9038 -23.16187,7.3552 -46.32738,9.0155 -63.82935,4.5747 l -6.28969,-1.596 1.90007,-4.5475 c 2.06193,-4.9348 8.2297,-13.1691 23.83768,-31.8245 5.52187,-6.6 9.53709,-12.1777 8.9227,-12.3949 -0.61439,-0.2172 -8.53397,0.139 -17.59908,0.7916 -18.71788,1.3474 -33.8794,0.2457 -42.10656,-3.0596 l -5.62456,-2.2597 6.35715,-5.025 c 30.21026,-23.8798 44.91144,-62.6256 42.43157,-111.8308 -1.83178,-36.3457 -12.9136,-72.9095 -34.37675,-113.424 -11.9653,-22.5861 -14.70553,-35.3254 -15.22858,-70.7976 -0.36972,-25.0746 -0.70183,-28.3692 -4.01888,-39.8677 -3.50759,-12.15903 -3.59324,-13.25676 -2.861,-36.66664 0.85021,-27.18111 3.82268,-47.49732 11.13896,-76.13236 10.90786,-42.69203 30.3477,-86.13023 51.64329,-115.39662 4.98277,-6.84779 6.07909,-9.54966 7.35453,-18.12513 3.97458,-26.72317 18.24264,-54.08149 46.42002,-89.00819 6.44718,-7.99146 12.52636,-15.6129 13.5093,-16.93653 1.61222,-2.17103 1.20949,-2.67813 -4.11431,-5.18061 -19.22678,-9.03765 -22.48116,-29.58298 -6.74108,-42.55728 l 5.00915,-4.12897 h -4.21699 c -5.30996,0 -10.36673,-1.88205 -16.62578,-6.18784 -10.82579,-7.44739 -11.92168,-20.78317 -2.60403,-31.68815 2.06655,-2.4186 2.00992,-2.4984 -1.16078,-1.63559 -18.86642,5.13393 -27.27762,3.45252 -36.47382,-7.29117 -8.36662,-9.77451 -9.28338,-24.54694 -2.09081,-33.6908 1.51781,-1.92959 5.41577,-5.06493 8.66214,-6.96742 3.24637,-1.9025 5.93023,-3.85208 5.96414,-4.3324 0.0339,-0.48031 -13.6161,-27.99766 -30.33334,-61.14966 -25.55658,-50.68131 -30.97591,-60.52228 -34.04443,-61.82129 -13.24699,-5.60792 -19.97331,-13.44044 -21.8528,-25.44666 -0.53979,-3.44815 -10.25881,-24.55135 -24.03533,-52.1886 -12.721,-25.51977 -23.12909,-47.25594 -23.12909,-48.3026 0,-1.04666 1.49736,-2.88412 3.32745,-4.08324 5.52085,-3.6174 11.54211,-1.51291 21.02566,7.34868 5.79995,5.41957 11.33707,9.05137 18.31356,12.01186 18.52936,7.86297 32.47144,18.23951 36.02106,26.80906 1.9436,4.69226 1.87504,4.67943 6.68815,1.25219 7.07996,-5.04138 20.59266,-10.55939 31.29079,-12.77783 19.174,-3.97605 51.5397,-0.92477 66.3105,6.25143 l 5.90362,2.8682 -1.11812,7.51091 c -5.15661,34.63926 -27.63317,60.50627 -62.7337,72.19671 -6.53726,2.17727 -8.70399,3.46502 -7.9867,4.74674 1.63475,2.92114 23.06253,21.83316 31.83304,28.09564 17.10618,12.21445 40.65133,20.50582 58.06848,20.44868 16.47474,-0.0541 34.9969,-6.86613 52.39536,-19.26995 16.5474,-11.79706 36.31293,-36.27245 48.03563,-59.48187 4.71707,-9.33918 16.62522,-38.25619 16.62522,-40.37166 0,-0.69431 -2.90827,-4.33745 -6.46282,-8.09586 -8.56962,-9.06111 -10.77206,-17.16058 -7.61729,-28.01258 2.67347,-9.19642 8.7081,-16.22716 17.40374,-20.27652 7.54239,-3.51231 9.82675,-3.71807 19.12941,-1.723 13.03368,2.79522 23.12596,15.81493 23.21776,29.95246 0.0494,7.60207 -2.65788,13.86767 -8.82007,20.41302 L 466,316.22179 l 16.74886,16.22244 c 33.61567,32.55913 62.01404,47.91698 95.51035,51.65204 10.76118,1.19994 14.36771,1.07239 22.92229,-0.81071 20.63205,-4.54168 41.47895,-17.21189 56.25412,-34.18983 14.91666,-17.14051 29.71282,-43.40103 38.42754,-68.20197 5.88835,-16.75746 5.23381,-29.48337 -0.92517,-17.9877 -3.72724,6.95684 -12.11048,15.44486 -18.13429,18.36094 -8.69159,4.20752 -22.92373,3.74751 -34.30479,-1.10881 -12.58297,-5.36918 -27.60088,-16.18429 -42.80354,-30.82486 L 586.5424,236.66667 603.30537,219.0806 c 26.98308,-28.308 39.64433,-36.25268 55.21251,-34.6447 4.11516,0.42504 8.976,1.20845 10.80185,1.7409 l 3.31973,0.96811 -3.57232,-4.24546 c -12.43265,-14.77537 1.24328,-44.87702 37.04419,-81.53678 L 719.75469,87.391998 733.3228,100.696 c 20.43476,20.03699 34.32625,39.77933 40.16501,57.08181 3.21514,9.5277 2.72042,17.38921 -1.54976,24.62662 l -2.71536,4.60219 3.05532,-1.11139 c 1.68043,-0.61126 7.25532,-1.11849 12.38866,-1.12718 14.87947,-0.0252 22.25121,4.60587 47,29.52616 C 842.85,225.55505 852,235.50963 852,236.41551 c 0,1.99943 -17.7835,19.60834 -28.24326,27.96599 -10.19693,8.14764 -22.48651,14.79251 -33.64814,18.19328 -7.60462,2.317 -10.41464,2.58955 -16,1.5519 -13.30876,-2.47253 -19.53248,-6.71444 -27.01631,-18.41356 -5.97479,-9.34009 -7.69249,-9.15432 -6.66038,0.72033 2.36046,22.58374 19.29379,55.3263 42.90142,82.95492 22.10395,25.86882 54.0696,39.24265 83.04931,34.7463 30.31756,-4.70393 60.26944,-21.99252 92.91713,-53.63289 l 14.63311,-14.18162 -5.02594,-5.56312 c -6.30176,-6.97529 -7.58104,-10.34018 -7.54432,-19.84384 0.0364,-9.42845 3.28537,-16.86453 9.90953,-22.68062 6.01831,-5.28415 8.64554,-6.37305 18.14794,-7.52175 6.31648,-0.76358 8.18664,-0.39479 14.57071,2.87325 20.0596,10.26853 24.363,35.66232 8.4216,49.69453 l -6.2427,5.49506 1.7359,4.9465 c 3.209,9.14373 17.1299,38.95177 22.9051,49.04555 11.2436,19.65132 30.5115,40.36048 48.8581,52.51278 16.8562,11.16505 44.6641,16.20122 62.9979,11.40924 12.0407,-3.14714 28.2053,-11.12469 40.7393,-20.10568 11.4261,-8.18719 31.2607,-25.50578 31.2607,-27.29538 0,-0.6036 -3.3881,-2.08239 -7.529,-3.2862 -36.2513,-10.53852 -59.4264,-36.9568 -64.3687,-73.37645 l -0.9652,-7.11279 8.7648,-3.97827 c 11.9444,-5.42152 22.2044,-7.34157 38.7647,-7.25446 20.943,0.11016 42.7962,6.18976 56.3345,15.67234 4.08,2.85779 4.3363,2.74316 8.0866,-3.61752 1.8375,-3.11666 5.0446,-7.27292 7.1266,-9.23611 4.6471,-4.38168 18.4257,-12.24268 28.9986,-16.54428 5.1945,-2.11339 10.6848,-5.89952 16.1117,-11.11072 11.5694,-11.10953 20.7425,-12.58574 23.8615,-3.83999 1.0101,2.8324 -2.283,10.23212 -22.1902,49.86188 -15.4075,30.6722 -23.9007,49.09809 -24.9147,54.05207 -1.9139,9.35048 -7.3267,15.8295 -17.4146,20.84492 l -7.3333,3.64593 -30.2812,59.32982 c -16.6546,32.6314 -30.3046,60.0228 -30.3333,60.86979 -0.029,0.84698 2.6613,3.13015 5.9777,5.0737 6.627,3.88368 12.1133,11.10224 13.4259,17.66492 1.2576,6.28803 -1.886,17.35928 -6.3833,22.48152 -8.5435,9.73046 -18.1307,12.61798 -30.8042,9.2777 -4.2524,-1.1208 -8.0062,-2.03781 -8.3417,-2.03781 -0.3355,0 1.2484,2.55 3.5197,5.66666 3.5079,4.81364 4.0451,6.57175 3.5682,11.6791 -0.3087,3.30684 -1.4133,7.73307 -2.4546,9.83606 -2.9237,5.90493 -11.5985,11.41767 -19.4253,12.34463 l -6.7779,0.80274 5.018,4.5334 c 8.7708,7.92396 11.5012,17.94588 7.4958,27.51356 -1.7215,4.11232 -10.7283,13.35423 -14.1143,14.48292 -1.1998,0.39991 -0.7126,4.17322 1.8729,14.50738 11.1994,44.76202 29.0477,91.01285 60.7026,157.30021 15.6176,32.70424 33.3079,75.01518 42.4523,101.53564 11.1769,32.4151 15.8745,64.55752 13.4685,92.15633 -2.1046,24.1419 -4.9986,40.118 -18.7741,103.6414 l -5.6383,26 -0.031,32 c -0.037,37.1841 0.5357,41.5492 12.5708,95.884 4.4874,20.2589 7.9505,37.4594 7.6959,38.2233 -0.2554,0.766 -2.7636,-0.1722 -5.5922,-2.0917 -2.821,-1.9144 -5.2714,-3.3011 -5.4454,-3.0815 -0.1739,0.2195 -1.0656,5.1992 -1.9815,11.0659 -1.9951,12.7788 -6.1802,29.2238 -12.7245,50 -5.8007,18.4155 -9.2877,40.1425 -8.0423,50.1103 0.499,3.9938 2.2562,9.1286 4.0069,11.7084 l 3.1182,4.5948 -5.9357,1.4947 c -10.7953,2.7183 -23.578,-2.7322 -34.2528,-14.6051 -10.6037,-11.7939 -14.2261,-25.3219 -14.2261,-53.1289 v -18.1284 l -6.3333,7.2912 c -3.4833,4.0102 -11.48,12.8353 -17.7704,19.6114 -6.2905,6.776 -13.0536,15.2899 -15.0292,18.9198 -3.9609,7.2775 -8.8671,24.7616 -8.8671,31.5997 0,2.4061 -0.5823,4.7346 -1.2941,5.1745 -1.5329,0.9474 -8.2011,-2.291 -10.5531,-5.1251 -1.446,-1.7423 -2.6631,-1.5141 -9.7168,1.8217 -21.3815,10.1119 -48.6692,4.5707 -71.3032,-14.4793 -10.0523,-8.4606 -19.4819,-20.2437 -28.9849,-36.2194 -3.535,-5.9429 -6.7333,-10.4993 -7.1072,-10.1255 -0.3739,0.3739 -0.5994,12.0556 -0.5011,25.9593 0.3289,46.5196 -4.11113,82.1172 -12.31716,98.7519 -4.58815,9.3008 -14.5322,21.0998 -21.31614,25.2926 -2.34792,1.451 -7.26235,3.0086 -10.92094,3.4612 -8.13333,1.0061 -14.93658,-2.0169 -17.95831,-7.9798 -1.11486,-2.2 -2.17334,-4.2464 -2.35218,-4.5474 -0.76638,-1.2902 -5.81727,4.6706 -8.23931,9.7236 -1.94482,4.0573 -3.02691,10.7107 -4.14569,25.4904 -1.82072,24.0528 -3.62706,29.1026 -12.83764,35.8889 -8.65212,6.3748 -15.60058,8.3092 -19.8489,5.5256 -1.74688,-1.1446 -3.51857,-2.0811 -3.9371,-2.0811 -0.41853,0 -1.93072,2.7289 -3.36042,6.0642 -4.80867,11.2182 -10.19283,17.7312 -15.4776,18.7226 -5.09197,0.9553 -7.63781,-0.9116 -6.52772,-4.7868 2.8984,-10.1182 2.60363,-10.3372 -4.17295,-3.1006 -8.41699,8.9884 -12.88279,11.8053 -14.887,9.3904 -1.07994,-1.3013 -0.95316,-3.485 0.47848,-8.242 2.13696,-7.1006 2.49658,-11.4038 0.94768,-11.3399 -0.55,0.023 -3.1,2.8559 -5.66667,6.2962 -7.84064,10.5092 -22.86484,25.6663 -29.01242,29.269 -4.99529,2.9274 -6.30774,3.1905 -9.24371,1.8528 -1.88199,-0.8575 -3.5546,-1.3866 -3.71691,-1.1759 -0.16231,0.2108 -2.33477,4.2692 -4.8277,9.0185 -5.48409,10.448 -21.3708,26.8147 -32.22191,33.1955 -4.32978,2.546 -10.25059,4.7907 -13.64611,5.1734 -3.29885,0.3718 -5.9976,0.448 -5.99723,0.1693 3.7e-4,-0.2787 1.3192,-3.8067 2.93073,-7.8401 2.34069,-5.8582 2.92613,-10.0152 2.91049,-20.6666 -0.0108,-7.3334 -0.64052,-14.8123 -1.39946,-16.6198 -1.35598,-3.2295 -1.40923,-3.1949 -3.07388,2 -7.09164,22.131 -26.16466,48.1751 -40.70189,55.5783 -9.79726,4.9893 -9.33266,5.6845 -9.3392,-13.9754 -0.005,-14.8744 -0.47992,-19.0126 -3.02044,-26.3165 -4.70739,-13.5334 -4.84142,-13.5824 -9.72748,-3.5614 -2.37985,4.8809 -7.10787,12.329 -10.50669,16.5513 -9.68122,12.0267 -16.98574,13.9594 -20.00666,5.2936 l -1.49001,-4.2743 -7.09353,13.3287 c -9.25946,17.3986 -15.99389,24.2929 -21.81599,22.334 z"
       id="path1" />
    <path
       id="path2"
       style="fill:#fff6d5;display:inline"
       d="M 860.48242 685.42578 L 852.57422 689.2207 C 845.96273 692.39364 843.75486 694.40789 839.10352 701.50781 C 828.37028 717.8913 821.33398 735.6537 821.33398 746.36328 C 821.33398 748.55097 820.43962 751.08203 819.34766 751.98828 C 811.53883 758.46902 779.0633 733.99424 756.05078 704.28516 C 749.46039 695.77698 747.23496 693.69661 746.37109 695.24023 C 744.06816 699.35537 735.98427 722.95254 733.37305 733.17969 C 729.83479 747.03766 729.95797 752.98445 734.16406 771.42969 C 737.52257 786.15798 737.56534 786.86559 735.28906 789.38086 C 733.98569 790.82107 731.56684 792 729.91211 792 C 726.91497 792 723.51422 787.99298 706.25391 764.11719 C 699.20551 754.36731 694.4056 750.69547 688.66602 750.66016 C 686.46602 750.64666 681.57012 749.81049 677.78516 748.80273 C 655.7273 742.92972 638.62232 727.64782 621.98633 698.94922 C 618.46309 692.87131 615.1741 687.64661 614.67773 687.33984 C 614.18136 687.03307 608.27547 695.17288 601.55273 705.42773 L 589.33008 724.07422 L 590.73633 737.03711 C 591.50976 744.16693 592.70637 752.09935 593.39648 754.66602 C 594.08661 757.23267 594.65607 760.64066 594.66016 762.23828 C 594.66816 765.48904 591.42448 769.33398 588.67383 769.33398 C 585.72563 769.33398 579.02427 762.93801 578.0957 759.23828 C 575.57906 749.21118 567.04717 734.97433 558.37891 726.33398 C 546.02753 714.02241 544.76565 714.25556 545.66602 728.6875 C 546.51802 742.34404 550.63963 751.92162 558.85938 759.34766 C 563.71395 763.73347 564.14941 764.61318 562.86523 767.43164 C 560.89119 771.76422 555.75728 772.72778 544.69922 770.84375 C 533.56948 768.94751 521.1523 763.43296 514.13477 757.27148 C 509.3537 753.07366 508.47451 752.81376 498.86328 752.74219 C 490.98654 752.68349 487.23144 751.96002 482.35938 749.56055 C 468.83782 742.90119 454.8608 726.70625 445.73242 707.12109 L 440.85938 696.66602 L 438.91211 702.66602 C 437.73946 706.27862 436.90608 714.50315 436.81641 723.33398 C 436.67602 737.15948 436.90629 738.50614 440.8457 746.82031 C 445.36169 756.35141 457.07306 769.13062 463.87305 771.94727 C 468.91584 774.03606 469.95159 776.85631 467.21094 781.03906 C 465.07325 784.3016 464.76386 784.35564 452.17773 783.66211 C 431.20648 782.50653 414.95378 775.88568 393.46875 759.74414 C 388.77606 756.21855 384.5603 753.33398 384.10156 753.33398 C 383.64281 753.33398 382.20813 758.47687 380.91406 764.76367 C 377.61333 780.79912 372.86387 795.2544 364.37305 815.09961 L 357.05664 832.19922 L 359.76562 835.09961 C 363.27001 838.84957 364.94945 846.08455 367.17969 867.05273 C 368.17722 876.43136 369.31173 884.42306 369.70117 884.8125 C 370.0906 885.20193 374.5163 881.50297 379.53711 876.5918 C 432.24268 825.03705 504.6956 803.07168 568.58789 819.2793 C 598.60936 826.89487 628.73125 846.17781 647.50977 869.80078 C 665.36975 892.26827 685.34885 930.45524 689.81445 950.66016 C 695.31146 975.53169 692.87985 1030.6766 684.54492 1070.1758 C 678.09732 1100.7311 677.17412 1107.4594 677.15625 1124 C 677.13615 1142.5927 679.78319 1155.7005 686.08398 1168.2051 C 691.21154 1178.3813 693.80129 1181.7044 699.89844 1185.9297 C 708.15483 1191.6514 714.54023 1192.5312 723.59766 1189.1973 C 729.72132 1186.9433 737.78605 1177.9939 742.12109 1168.6445 C 752.41934 1146.4344 753.21865 1119.9058 744.81836 1079.0098 C 737.33176 1042.5619 734.46953 1019.6059 733.68164 989.65234 C 732.87791 959.09659 733.83956 950.49518 740.74219 926.44727 C 751.59645 888.63231 772.28757 857.0093 797.27734 840.03906 C 823.18951 822.44244 857.78549 813.34844 898.86719 813.33789 C 933.548 813.32889 954.80051 818.10246 983.33398 832.31055 C 1003.0869 842.14645 1017.7529 852.37664 1032.5195 866.61719 L 1045.7051 879.33398 L 1044.7441 874.08203 C 1043.2914 866.13611 1036.7454 854.04903 1026.3906 840.19141 C 1010.3078 818.66818 1002.4652 800.99113 1000.5039 781.84766 C 999.62714 773.28966 999.52714 773.10437 996.13672 773.7832 C 978.26322 777.36185 964.96891 778.78487 956.66602 778.00977 C 936.50166 776.12734 916.54694 766.14863 902.40625 750.875 C 893.61972 741.3845 888.50739 733.73308 875.98633 711.33398 C 870.65721 701.80066 864.98952 692.07104 863.39062 689.71289 L 860.48242 685.42578 z M 895.31836 827.26758 C 881.84888 827.16518 868.52829 828.0173 860 829.85742 C 826.22326 837.14527 798.43599 854.34542 779.33008 879.79297 C 759.98813 905.55488 751.75054 929.98362 749.27539 968.91992 C 747.24468 1000.865 749.3809 1023.961 759.30078 1077.334 C 765.24215 1109.3009 766.48238 1129.2425 763.56641 1145.9004 C 761.55784 1157.3745 761.57622 1157.9309 764.09961 1161.4746 C 771.29995 1171.5866 785.63083 1178.4399 794.53516 1176.0293 C 800.66371 1174.3702 812.64891 1163.9028 816.04688 1157.2422 C 822.66538 1144.2689 817.80821 1128.3599 801.91992 1110.9688 C 791.97993 1100.0884 791.89329 1097.334 801.49219 1097.334 C 806.26788 1097.334 807.68912 1098.3677 820.32812 1111.0254 C 841.46687 1132.1954 849.75775 1148.3477 849.91016 1168.666 C 849.95966 1175.266 849.52356 1182.7674 848.94141 1185.334 L 847.88281 1190 L 858.05273 1193.8789 C 890.92415 1206.415 918.09788 1232.6381 934.09766 1267.2676 C 941.95976 1284.2841 948.96771 1310.9926 951.36719 1333.082 C 951.86993 1337.7103 952.54068 1341.2367 952.85938 1340.918 C 953.17804 1340.5993 955.77517 1332.0122 958.62891 1321.8359 C 970.06619 1281.0512 980.44487 1255.1201 1004.9277 1206.1621 C 1051.0782 1113.8767 1067.2075 1051.2969 1064.9395 973.33398 C 1064.211 948.2895 1060.0244 917.16799 1054.7598 897.66602 C 1053.1746 891.79382 1051.3296 889.53392 1052.7539 895.20898 C 1054.1941 900.94696 1048.2623 907.70659 1043.418 905.84766 C 1042.2583 905.40263 1037.9347 899.85519 1033.8105 893.51953 C 1021.4496 874.52988 1002.0573 857.7336 979.26367 846.27539 C 968.9753 841.10348 946.59626 833.66028 931.53125 830.40039 C 922.40729 828.42608 908.78784 827.36998 895.31836 827.26758 z M 521.125 828.73828 C 486.24154 828.8255 454.40319 838.78113 424 859.0293 C 412.88402 866.43241 386.25018 892.64504 378 904.30273 C 375.06667 908.4476 371.68012 912.10208 370.47461 912.42383 C 367.81527 913.13359 367.8132 913.14235 362.04883 951.33398 C 356.1844 990.18836 351.07702 1030.328 349.91211 1046.7207 C 348.3166 1069.1728 353.3775 1094.4211 366.33398 1128.6523 C 376.51886 1155.5611 385.35779 1173.7245 407.86328 1214 C 419.74686 1235.2667 432.78405 1259.4546 436.83594 1267.75 C 449.1349 1292.9298 459.61954 1328.5506 462.02734 1353.334 C 463.2231 1365.6418 464.75658 1368.6842 472.14258 1373.4238 C 475.73116 1375.7266 478.66602 1378.1497 478.66602 1378.8066 C 478.66602 1379.4634 478.81667 1380 479 1380 C 479.18333 1380 479.35585 1365.15 479.38281 1347 C 479.42621 1317.7934 479.77948 1312.4027 482.45508 1300.1035 C 493.12723 1251.0456 520.40712 1218.538 568.28906 1197.8203 L 579.70312 1192.8809 L 578.33398 1188.9551 C 576.22558 1182.9068 577.98224 1159.4767 581.35352 1148.666 C 582.9543 1143.5326 586.44705 1135.1333 589.11719 1130 C 598.30912 1112.3285 621.40757 1093.6349 630.2207 1096.7344 C 632.28546 1097.4605 634.1685 1099.0643 634.40625 1100.2988 C 634.64535 1101.5404 631.4427 1106.5462 627.24023 1111.5 C 617.86541 1122.551 613.49342 1131.8412 612.47656 1142.8691 C 611.52644 1153.1734 613.30513 1160.2891 618.64258 1167.5469 C 623.56424 1174.2393 629.69325 1177.334 638.03125 1177.334 C 643.33579 1177.334 645.61498 1176.4142 652.49805 1171.4922 C 665.80882 1161.9737 665.96225 1161.6958 664.20898 1150.3555 C 659.97435 1122.9653 660.99436 1105.3823 669.39648 1060.959 C 674.30702 1034.9962 674.7547 1030.7462 674.8457 1009.334 C 674.96073 982.2671 674.24289 974.71266 669.88281 957.14258 C 658.37167 910.75525 638.41048 878.77974 605.37109 853.80469 C 584.38103 837.93792 566.52325 831.6072 536.26758 829.30469 C 531.15526 828.91563 526.10836 828.72582 521.125 828.73828 z M 884.69922 850.07812 C 918.74775 850.15258 951.37492 864.57602 987.33398 894.73047 C 1004.9207 909.47825 1027.7746 932.63424 1028.8086 936.75391 C 1029.7033 940.31888 1027.4934 944 1024.459 944 C 1023.4245 944 1016.4783 938.22626 1009.0234 931.16992 C 970.0733 894.30182 945.1659 877.69627 914.76172 868.32812 C 904.33742 865.1162 901.34081 864.80462 880.66602 864.77539 C 854.60677 864.73859 847.45717 866.15705 829.63477 874.90039 C 816.84261 881.17598 801.4759 894.67555 793.12109 906.97852 C 787.56621 915.15846 783.90777 916.60856 780.90625 911.81836 C 778.8465 908.53113 785.46114 896.12013 794.44727 886.41406 C 808.6566 871.06629 826.43235 860.93056 850 854.73633 C 861.84155 851.62403 873.3497 850.05333 884.69922 850.07812 z M 520.59375 850.35352 C 531.58522 850.1914 543.9352 851.14498 552.74609 853.0957 C 578.78778 858.86135 598.94849 869.53694 614.37305 885.72852 C 623.75667 895.57877 630.60151 908.34789 628.39062 911.87695 C 625.74026 916.10757 621.96463 915.08581 617.99805 909.06445 C 604.25512 888.20252 585.76716 874.61363 561.73242 867.70703 C 552.81223 865.14372 548.20563 864.72351 529.33398 864.75195 C 503.03245 864.79155 494.19697 866.78404 471.38281 877.82422 C 449.81557 888.26099 436.58411 898.19847 402.38477 929.64258 C 393.79591 937.53945 385.86567 944 384.76367 944 C 383.66166 944 382.14242 942.84565 381.38672 941.43359 C 379.2239 937.39237 381.22583 934.18435 394.0293 921.17188 C 433.89312 880.6573 467.93157 859.07764 503.33398 851.87695 C 507.89396 850.94948 513.99888 850.45078 520.59375 850.35352 z M 877.11133 882.55273 C 887.76426 882.54568 898.52757 883.45133 906.11914 885.27148 C 932.33967 891.5581 955.77352 904.22851 976.92773 923.55664 C 983.1138 929.20865 996 943.90574 996 945.30859 C 996 947.12719 956.18995 965.41683 942.52344 969.87695 C 900.50783 983.58895 864.09152 982.56105 828.66016 966.66406 C 821.19172 963.31322 820.14367 963.11124 821.28516 965.24414 C 823.35414 969.1101 838.30301 981.67794 849.12305 988.64844 C 872.75243 1003.871 901.44464 1013.9285 940.17188 1020.5645 C 942.83255 1021.0204 946.64675 1022.9105 948.64844 1024.7656 C 952.14978 1028.0105 952.19871 1028.2377 949.9375 1030.7363 C 947.95395 1032.9281 945.90177 1033.3121 936.79297 1033.1992 C 930.85663 1033.1252 922.10065 1032.2155 917.33398 1031.1758 C 894.38174 1026.1695 869.67884 1016.6232 847.33398 1004.125 C 837.22078 998.46831 831.06809 993.76789 821.86133 984.66602 C 805.50018 968.49126 800.33152 959.30559 797.42188 941.23828 C 796.18758 933.57398 796.34269 932.37147 799.3418 926.40039 C 809.89218 905.39507 827.51248 890.74274 848.75977 885.30859 C 855.9147 883.47868 866.45839 882.55979 877.11133 882.55273 z M 532 882.61719 C 552.94355 882.57399 566.31137 885.33783 578.4707 892.22656 C 589.17594 898.2915 603.84911 913.47282 609.31641 924.14062 L 613.83008 932.94922 L 611.6582 943.9707 C 610.46392 950.03273 607.90075 958.23251 605.96289 962.19336 C 601.21411 971.89953 582.96157 990.94409 570.66602 999.02148 C 550.48116 1012.2817 516.07305 1026.3319 491.72266 1031.2559 C 479.40141 1033.7475 462.53732 1034.0022 460.26758 1031.7324 C 455.08454 1026.5494 461.67313 1022.1667 479.81641 1018.7305 C 511.17721 1012.7909 541.79643 1001.2077 562.48047 987.45703 C 571.65384 981.35859 589.33398 965.93438 589.33398 964.0293 C 589.33398 963.44171 584.62743 964.99429 578.87695 967.48047 C 556.55174 977.13259 530.81633 981.28255 508.70898 978.79492 C 481.93912 975.78264 458.00606 968.36331 430.66602 954.59961 C 410.54322 944.46926 411.03272 946.5067 425.17383 931.71484 C 443.54617 912.49704 457.79415 902.42576 480.01172 892.95117 C 498.05255 885.25774 511.12186 882.66021 532 882.61719 z M 829.00391 1144.666 L 827.33203 1154.1133 C 825.4289 1164.872 820.88486 1172.7816 814.4082 1176.6074 L 810.10938 1179.1465 L 817.82812 1180.9004 C 822.0734 1181.8646 826.54857 1183.2383 827.77344 1183.9531 C 831.95416 1186.3927 833.14363 1185.3324 834.71289 1177.7734 C 836.59208 1168.7213 835.52072 1158.9165 831.74805 1150.666 L 829.00391 1144.666 z M 598.50391 1146.9316 C 597.54062 1147.0143 596.14611 1149.0103 594.42188 1152.9082 C 592.07897 1158.2047 591.75956 1161.0006 592.30273 1171.3848 C 593.00637 1184.837 593.83135 1187.3191 597.13477 1185.9102 C 598.34391 1185.3945 601.43333 1184.1796 604 1183.2109 C 606.56667 1182.2421 610.46602 1181.4198 612.66602 1181.3828 L 616.66602 1181.3164 L 610.46094 1175.9961 C 603.54159 1170.0649 600 1162.0879 600 1152.4297 C 600 1148.6798 599.46719 1146.849 598.50391 1146.9316 z M 671.01758 1169.334 C 670.63596 1169.334 667.96809 1171.4602 665.08984 1174.0605 C 662.2116 1176.6608 658.38967 1179.458 656.5957 1180.2754 C 651.70876 1182.5021 652.64871 1183.9895 659 1184.0801 C 662.11667 1184.1241 669.76668 1185.4926 676 1187.1191 C 682.23332 1188.7456 687.59749 1189.895 687.91992 1189.6738 C 688.24234 1189.4527 687.04104 1188.2671 685.25195 1187.0391 C 680.15588 1183.5412 673.29864 1175.66 672.4668 1172.3457 C 672.05093 1170.6887 671.3992 1169.334 671.01758 1169.334 z M 757.08008 1170 L 754.95703 1173.334 C 753.78942 1175.1674 749.49536 1179.9194 745.41602 1183.8945 C 739.54807 1189.6125 738.69683 1190.9218 741.33398 1190.1621 C 743.16732 1189.634 749.16602 1188.3257 754.66602 1187.2559 C 760.16601 1186.186 767.0659 1184.9611 769.99805 1184.5332 L 775.32812 1183.7559 L 771.33203 1181.7246 C 769.13322 1180.6078 765.02675 1177.5134 762.20703 1174.8477 L 757.08008 1170 z M 712.30078 1253.2344 C 711.9523 1253.2965 711.70747 1254.3385 711.33984 1256.0371 C 709.57382 1264.1971 703.88067 1273.6815 696.31055 1281.0723 C 688.5996 1288.6006 688.61356 1288.443 695.33398 1292.2773 C 699.19965 1294.4829 708.13488 1297.1415 712 1297.2363 C 713.83333 1297.2813 717.61521 1296.6847 720.4043 1295.9102 C 723.19338 1295.1357 727.32023 1292.8537 729.57422 1290.8398 L 733.67188 1287.1777 L 726.63867 1280.4688 C 720.55123 1274.6618 719.11531 1272.2559 715.97266 1262.584 C 713.75193 1255.7494 712.88158 1253.1308 712.30078 1253.2344 z M 678.49023 1295.9434 L 674.65625 1298.6738 C 668.54662 1303.0243 662.47358 1305.1188 643.6582 1309.3613 C 624.93461 1313.583 614.51485 1317.8173 609.36523 1323.2988 C 607.63067 1325.1452 606.46499 1326.8572 606.77344 1327.1035 C 610.83254 1330.3451 629.48916 1340.7917 635.79883 1343.3555 C 642.47561 1346.0686 659.00458 1349.9807 666.18359 1350.5469 C 667.01793 1350.6129 671.64103 1348.822 676.45703 1346.5684 C 688.22401 1341.0619 704.36755 1338.2563 718 1339.3477 C 728.54767 1340.1921 745.9011 1345.0461 751.61914 1348.752 C 755.83519 1351.4844 779.92737 1351.3352 789.42383 1348.5176 C 799.30665 1345.5853 807.51394 1341.2648 815.09766 1334.998 C 824.89862 1326.8991 825.99152 1324.8583 823.13086 1320.0156 C 818.58641 1312.3224 811.57639 1310.4054 784 1309.3125 C 757.96015 1308.2805 747.41538 1305.975 743.28711 1300.4121 C 741.68171 1298.2488 741.17679 1298.1989 738.41406 1299.9316 C 716.83428 1313.4655 706.01834 1313.737 686.66211 1301.2266 L 678.49023 1295.9434 z " />
    <path
       id="path3"
       style="fill:#00ffff;display:inline"
       d="M 578.12305 904.17578 C 578.08083 904.16742 578.04977 904.17093 578.0332 904.1875 C 577.76814 904.45257 578.40348 907.95018 579.44336 911.95898 C 583.13645 926.19619 581.39398 941.03249 574.07812 957.65625 C 573.11872 959.83633 573.41342 959.85343 578.86133 957.9375 C 582.05428 956.81459 586.96393 954.38066 589.77148 952.52734 C 595.12747 948.9918 599.92823 940.57171 599.95703 934.66602 C 599.98643 928.64668 593.8973 918.17171 586.11523 910.85352 C 582.1966 907.16845 578.75631 904.30127 578.12305 904.17578 z M 831.30469 904.2832 C 830.5361 904.39862 826.60521 907.81471 822.17578 912.24414 C 807.99199 926.42794 806.15444 939.52819 816.88867 949.95312 C 820.85612 953.80626 834.40188 960.59955 835.69922 959.38672 C 835.90098 959.1981 834.93058 956.39215 833.54102 953.15039 C 827.86161 939.90088 826.63692 925.79705 830.0332 912.75781 C 831.15106 908.46607 831.77339 904.66206 831.41602 904.30469 C 831.39368 904.28235 831.35593 904.27551 831.30469 904.2832 z M 932.77734 909.52344 C 932.71667 909.53128 932.67321 909.54946 932.64453 909.57812 C 932.373 909.84965 932.76975 912.757 933.52734 916.03711 C 936.39505 928.45329 932.38361 944.91385 923.46484 957.32812 C 920.82587 961.0014 918.66602 964.30495 918.66602 964.66992 C 918.66602 965.75683 920.10422 965.48661 932.80273 962.00586 C 950.52192 957.14892 965.49889 950.68817 977.14844 942.87695 C 979.19259 941.50631 972.13266 934.35994 958.83984 924.34375 C 951.51782 918.82659 934.65819 909.28034 932.77734 909.52344 z M 476.59375 909.55859 C 474.73569 909.27806 458.52736 918.52703 450.66602 924.41602 C 441.69805 931.13395 432 939.96136 432 941.40625 C 432 944.85068 457.39166 956.6177 476.66602 962.10547 C 492.21388 966.53222 493.06734 966.40362 488.28711 960.33398 C 478.21416 947.54405 473.45708 931.14681 475.93359 917.75 C 476.69968 913.60587 477.0578 909.94647 476.72852 909.61719 C 476.6992 909.58787 476.65369 909.56764 476.59375 909.55859 z " />
    <path
       id="path4"
       style="fill:#803300;display:inline"
       d="M 532.29297 893.42383 C 523.12175 893.51367 513.27847 895.00554 504.55078 897.82617 C 494.11228 901.19972 493.65071 901.52715 490.08203 908.08398 C 482.70852 921.63155 484.43596 938.54955 494.57031 952.03711 C 505.69988 966.84916 512.21555 969.65583 533.12891 968.6543 C 540.32587 968.30964 544.84029 967.24946 550.14062 964.65625 C 558.04108 960.79092 562.33013 956.00356 566.92578 945.92578 C 572.38655 933.95092 570.23497 908.96086 563.06055 901.0332 C 561.84946 899.69496 556.70862 897.33801 551.63477 895.79688 C 546.15352 894.132 539.42614 893.35395 532.29297 893.42383 z M 872.42969 894.08789 C 860.95633 894.09696 859.42586 894.62564 852.73242 898 C 845.34093 901.72629 844.62566 902.50246 842.29297 909.33398 C 839.28208 918.15168 838.74424 934.48388 841.2168 942 C 843.85154 950.00913 849.99911 958.93794 855.37305 962.56055 C 863.1432 967.79847 871.14681 969.4054 885.33398 968.57617 C 896.14311 967.94438 898.75281 967.31856 903.13672 964.30859 C 919.49522 953.07691 927.8677 930.84049 922.13672 913.8457 C 918.83675 904.05992 916.30786 901.63882 905.30664 897.74609 C 896.57581 894.65673 893.17534 894.20478 878 894.10938 C 875.9111 894.09624 874.06874 894.08659 872.42969 894.08789 z " />
    <path
       id="path5"
       style="fill:#552200;display:inline"
       d="M 880.94531 902.00781 C 874.65767 901.91057 868.58052 904.02211 863.36133 908.32422 C 847.18432 921.65868 851.68614 947.99998 871.37305 955.20703 C 881.64502 958.96744 891.34519 957.09765 900 949.68945 C 912.60819 938.89731 911.34982 916.35159 897.64062 907.43359 C 892.2058 903.89818 886.49323 902.09361 880.94531 902.00781 z M 528.24414 902.0625 C 509.36134 902.17066 495.24173 921.50526 503.23047 940.625 C 506.2431 947.83524 508.87143 950.50305 516.66602 954.25195 C 528.52338 959.95492 544.6134 955.7257 551.67773 945.05078 C 555.75338 938.89205 557.20057 927.01257 554.77148 919.65234 C 552.46513 912.664 544.61505 905.5864 536.57812 903.25 C 533.73678 902.424 530.94168 902.04705 528.24414 902.0625 z " />
    <path
       id="path6"
       style="fill:#000000;display:inline"
       d="M 879.39648 914.66602 C 870.96519 914.66602 864.32603 927.12849 868.01367 936.03125 C 871.5281 944.51583 884.05189 946.82115 890.67188 940.20117 C 900.78417 930.08887 893.97367 914.66602 879.39648 914.66602 z M 528.94727 914.87305 C 520.13908 914.71022 511.20477 922.30457 514.56836 933.53125 C 517.39152 942.95411 526.97053 946.67031 536.17188 941.91211 C 538.4965 940.71 541.05892 937.79353 542.20898 935.04102 C 544.00942 930.73198 543.98664 929.68155 541.98242 924.43359 C 539.47227 917.86086 534.23217 914.97074 528.94727 914.87305 z " />
    <path
       id="path7"
       style="fill:#ff6600;display:inline"
       d="M 712 571.33398 C 605.87049 571.33398 527.78682 582.07997 431.73438 609.90625 C 382.11281 624.28157 323.99417 648.33241 321.21484 655.64258 C 320.54631 657.40095 320 663.23422 320 668.60547 C 320 698.08057 305.24818 735.07097 281.68359 764.68359 C 268.93047 780.70991 262.84183 792.33997 258.67383 808.63672 C 255.81438 819.81705 254.96335 841.86885 257.33398 843.33398 C 258.1484 843.83732 258.66602 841.79105 258.66602 838.07812 C 258.66602 830.96519 262.01839 826.66602 267.5625 826.66602 C 275.76145 826.66602 277.31836 832.08029 274.6582 851.33398 C 272.70994 865.43517 270.94359 871.04524 262.28516 890.66602 C 241.23965 938.357 233.68023 965.56739 229.36719 1009.1406 C 227.60957 1026.8971 227.61269 1060.3115 229.37305 1074.3535 C 231.1698 1088.6829 236.02703 1107.6222 241.28125 1120.7793 C 245.86533 1132.2583 251.83835 1143.273 252.90234 1142.209 C 253.26967 1141.8417 252.93323 1137.4323 252.1543 1132.4121 C 245.32089 1088.3698 248.83992 1027.5307 260.09766 995.06445 C 267.85907 972.68131 283.29653 944.19978 294.84766 930.95312 C 299.40644 925.72518 299.8263 919.89667 295.99609 915.02734 C 285.7309 901.97728 280.46671 849.33676 286.42578 819.33398 C 290.25203 800.06958 292.34856 795.47488 313.02734 761.06055 C 323.29216 743.97749 333.20121 726.98717 335.04688 723.30469 C 339.13331 715.15138 344 700.63642 344 696.60156 C 344 694.6615 345.03214 693.36721 347 692.83984 C 352.14516 691.461 357.38644 691.9223 358.11328 693.81641 C 359.21196 696.67952 355.09469 712.466 350.85547 721.64062 C 346.3973 731.28909 323.62263 769.8028 317.13477 778.66602 C 306.05381 793.80394 300.98237 808.90895 298.625 833.80078 C 297.57604 844.87696 297.80438 850.9202 299.88086 867.09766 C 301.27614 877.96802 302.70724 887.15254 303.0625 887.50781 C 303.77236 888.21767 325.90818 856.22605 333.82031 843.05469 C 342.45674 828.67758 355.55882 799.89325 360.52734 784.38281 C 363.16134 776.16016 366.61233 762.10377 368.19531 753.14648 L 371.07422 736.86133 L 368.17773 718.09766 C 364.11898 691.79921 364.45704 662.46624 368.83789 660.78516 C 374.16398 658.74134 376.80083 663.9971 377.80859 678.66602 C 379.8898 708.95978 395.4667 743.03495 413.64648 757.06055 C 420.60522 762.42917 432 767.65772 432 765.48242 C 432 764.89642 430.80827 760.95276 429.35156 756.71875 C 425.37716 745.16693 423.6366 728.25387 425.23828 716.73828 C 428.2445 695.12437 436.42878 677.68693 455.45508 652.35352 C 463.53865 641.59029 467.70573 638.25152 472.25586 638.89648 C 477.48985 639.63839 476.84315 645.00767 470.51758 653.33398 C 460.40711 666.64233 458 673.43768 458 688.66602 C 458 700.84708 458.33009 702.59488 461.81836 708.88867 C 463.91839 712.6777 467.98726 718.22575 470.86133 721.2168 C 476.11142 726.68058 489.41215 736.36519 490.36133 735.41602 C 490.64085 735.13649 488.99115 729.04406 486.69531 721.87695 C 481.37896 705.28038 480.48864 694.86362 483.64062 686.12695 C 488.66636 672.19666 496.1943 673.96707 497.81641 689.46094 C 499.96593 709.99271 506.78896 728.55144 516.05664 739.08008 C 520.50042 744.12847 528.82558 750.66126 530.82422 750.66797 C 531.10432 750.6689 531.14281 740.02858 530.91016 727.02148 L 530.48828 703.37109 L 521.99414 686.01953 C 509.28817 660.05765 509.65665 662.03675 516.77148 657.86719 C 520.08015 655.92817 522.9854 654.56546 523.22852 654.83789 C 524.91271 656.7251 532.63078 672.13487 537.31445 682.96094 C 543.35478 696.92282 548.35928 702.74745 558.93945 708.13281 C 562.08916 709.73603 567.02426 713.06157 569.90625 715.52344 C 572.78825 717.98532 575.78955 719.99003 576.57422 719.97852 C 578.03823 719.95702 589.2557 703.34271 598.09961 688.09766 L 603.07031 679.52734 L 602.15234 647.58984 C 601.32056 618.66487 601.44694 615.41797 603.49023 613.16016 C 605.9763 610.41309 611.32328 609.82656 612.75586 612.14453 C 613.25837 612.95762 615.12136 621.50763 616.89648 631.14453 C 622.38874 660.9613 631.58027 684.56249 645.63867 704.95508 C 655.46578 719.20991 668.47458 730.46333 665.95703 722.53125 C 659.58575 702.45712 654.61533 679.89687 655.63867 675.69336 C 656.38553 672.62558 659.75496 667.98216 661.20703 668.01953 C 663.85489 668.08763 665.90486 671.5493 669.47461 681.97656 C 676.28459 701.8686 685.14839 717.57512 697.90039 732.3457 C 706.32723 742.10647 715.87126 749.97942 716.56836 747.74414 C 716.86739 746.78527 719.36363 737.89999 722.11523 728 C 724.86684 718.10001 728.19567 707.56322 729.51172 704.58398 C 734.57274 693.12708 736.18554 683.38354 737.22656 657.98828 C 738.36558 630.2023 739.74962 624.78273 746.12109 623.18359 C 751.81248 621.75516 752.65523 624.09083 752.80469 641.73242 C 752.91466 654.71345 753.55179 659.88586 755.95703 667.33398 C 761.05072 683.10723 767.35247 694.10911 779.33789 708.15039 C 785.98764 715.94078 804.07903 732.36433 804.99805 731.44531 C 805.31069 731.13267 807.20466 726.14599 809.20703 720.36328 C 815.53334 702.09329 825.62562 689.74373 842.98438 679.0293 C 847.20967 676.4213 850.66602 673.89433 850.66602 673.41406 C 850.66602 671.22957 839.26114 662.08636 824 652.03711 C 798.86013 635.48284 786.09743 621.75671 786.38672 611.58203 C 786.53651 606.31389 788.91243 604 794.17578 604 C 799.0327 604 798.91215 603.8894 808.9043 617.28711 C 816.05593 626.87618 824.65834 634.22513 843.99805 647.26562 C 866.39873 662.37009 873.92011 671.32568 887.68945 699.2793 C 897.96759 720.14531 908.11545 735.10598 919.84766 746.69336 C 940.87189 767.45807 962.35005 772.65798 987.93164 763.17578 C 993.10253 761.25911 997.33398 759.29606 997.33398 758.81445 C 997.33398 758.33285 995.17658 756.77872 992.54102 755.35938 C 986.34476 752.02248 978.3521 740.78711 974.17969 729.55078 C 970.99561 720.97608 970.81907 718.72212 969.10742 664.72656 L 967.33398 608.78516 L 955.33398 604.95312 C 922.53191 594.4784 881.23839 585.38742 851.33398 582.05859 C 841.80066 580.99739 825.89999 578.93097 816 577.46484 C 780.32656 572.18183 765.94293 571.33398 712 571.33398 z M 984.84375 612 C 984.13379 612 984.00704 615.49801 984.54102 620.33398 C 985.04711 624.91732 985.99804 637.06733 986.6543 647.33398 C 988.39937 674.63443 993.96567 689.41993 1009.4082 707.76562 C 1015.8026 715.36222 1018.0941 717.16954 1022.2617 717.90234 C 1030.6037 719.36911 1052.4693 726.39063 1061.9766 730.65625 C 1092.2083 744.22031 1110.0276 767.21298 1111.6641 794.76758 C 1112.4032 807.21091 1111.0136 812 1106.666 812 C 1103.0927 812 1101.2954 807.97124 1100.8613 798.99219 C 1100.402 789.49177 1093.7006 773.05843 1086.6484 764.13672 C 1076.9991 751.92941 1066.1129 746.05434 1033.334 735.36328 C 1018.7968 730.62186 1003.0354 722.50097 995.50781 715.875 C 992.25317 713.01014 989.23239 710.66602 988.79492 710.66602 C 987.28779 710.66602 988.00559 719.53151 990.07617 726.50391 C 993.70151 738.71174 1004.563 747.70859 1021.6211 752.63086 L 1029.2402 754.82812 L 1024.4219 759.06055 C 1018.4744 764.28249 1016 769.96022 1016 778.38281 C 1016 792.86627 1022.9907 808.03642 1044.7012 840.66602 L 1059.7832 863.33398 L 1069.8047 865.58984 C 1102.1206 872.8653 1130.8873 892.9996 1141.9512 916.08594 C 1144.5446 921.4976 1146.666 926.69156 1146.666 927.62891 C 1146.666 928.56627 1147.2667 929.33398 1148 929.33398 C 1149.9461 929.33398 1149.5874 916.76993 1147.334 906 C 1142.4568 882.69012 1128.6588 864.6245 1097.5703 840.84766 C 1087.3736 833.04911 1076.0988 823.77862 1072.5156 820.24609 C 1060.1148 808.02095 1054.7373 792.79521 1059.1172 782.3125 C 1060.2616 779.5737 1061.7943 777.33398 1062.5234 777.33398 C 1064.3372 777.33398 1068 782.76289 1068 785.45117 C 1068 786.65613 1070.0765 791.79457 1072.6152 796.86914 C 1078.2106 808.05361 1085.7848 815.63894 1107.6211 831.93164 C 1127.4371 846.71701 1134.452 853.43066 1145.1387 867.84375 C 1160.1922 888.14635 1167.0337 906.49471 1167.0723 926.66602 C 1167.1063 944.50796 1161.0638 957.88073 1150.4668 963.41797 C 1145.9262 965.79053 1145.5666 965.30387 1140.1016 949.4082 C 1134.6434 933.53222 1128.2978 921.03984 1121.7617 913.30273 C 1115.4734 905.85902 1104 895.23434 1104 896.85547 C 1104 897.51275 1105.7597 902.23994 1107.9102 907.35938 C 1120.7138 937.8395 1126.6716 979.10293 1126.6602 1037.2148 C 1126.6502 1073.7959 1125.2958 1098.6251 1120.5293 1149.334 C 1118.6337 1169.5007 1117.3801 1189.8993 1117.7441 1194.666 C 1118.6225 1206.1707 1123.2104 1221.2845 1136.6289 1256.8789 C 1150.594 1293.9232 1153.8465 1306.4076 1153.0586 1319.9414 C 1152.3852 1331.5107 1152.2747 1331.7521 1137.834 1353.0078 C 1126.3127 1369.9666 1121.7492 1379.9977 1119.9863 1392.2402 C 1119.0613 1398.6647 1119.5372 1410.666 1120.7168 1410.666 C 1120.9176 1410.666 1124.0161 1404.7906 1127.6035 1397.6094 C 1136.5923 1379.6156 1144.5623 1368.15 1158.8848 1352.6055 C 1182.3105 1327.1812 1185.3065 1319.6262 1182.748 1292.4141 C 1179.4959 1257.8241 1176.3741 1247.9297 1156.7578 1210 C 1154.2615 1205.1733 1154.0107 1202.451 1154.1152 1181.334 C 1154.2156 1161.0653 1154.8715 1154.1466 1159.1035 1128.666 C 1166.9847 1081.2133 1168.0395 1072.5177 1168.8105 1048.666 C 1169.3512 1031.941 1169.0368 1023.2046 1167.6133 1015.334 C 1165.7061 1004.789 1166.2589 1001.9621 1170 1003.125 C 1172.6419 1003.9461 1177.4701 1012.6946 1180.373 1021.9219 C 1184.6781 1035.606 1184.3913 1061.6756 1179.4766 1103.334 C 1175.1701 1139.8373 1175.2657 1153.995 1179.9414 1172 C 1184.9061 1191.1179 1192.8994 1208.6446 1200.3965 1216.8477 C 1204.0386 1220.8327 1207.1862 1223.9216 1207.3906 1223.7129 C 1207.5951 1223.5041 1206.3313 1219.0718 1204.582 1213.8633 C 1199.2149 1197.8824 1196.892 1180.2497 1196.8711 1155.334 C 1196.8481 1127.7478 1198.7505 1111.6004 1204.8066 1088 C 1229.612 991.3358 1215.3135 920.09769 1152.623 828 C 1109.2011 764.20943 1094.6497 727.85894 1094.1777 682 L 1094 664.66602 L 1098.4219 664.87305 C 1105.5579 665.20579 1107.5181 668.07205 1108.5723 679.71094 C 1109.9716 695.15887 1114.5166 720.49976 1118.1836 733.30078 C 1122.925 749.8522 1129.2998 762.41644 1142.5234 781.2793 C 1182.6081 838.4577 1204.5513 879.16084 1219.1094 923.33398 C 1229.6788 955.40394 1233.8008 979.3552 1233.793 1008.666 C 1233.783 1029.7758 1233.9396 1028.7957 1223.4844 1074.666 C 1213.7958 1117.1731 1209.3702 1162.3118 1211.7832 1194 C 1213.4539 1215.9413 1216.1822 1227.4953 1221.5859 1235.502 C 1223.7441 1238.6997 1228.8175 1248.2721 1232.8594 1256.7754 C 1236.9013 1265.2786 1240.4674 1271.976 1240.7852 1271.6582 C 1241.103 1271.3404 1239.5882 1263.6382 1237.418 1254.541 C 1229.6061 1221.7942 1228 1209.5094 1228 1182.502 C 1228 1148.4928 1232.7433 1114.4175 1242.7324 1076.666 C 1256.0429 1026.3625 1256.606 999.56969 1245.3184 953.56445 C 1236.3209 916.89327 1224.6958 889.24912 1184.1035 808 C 1167.4334 774.63336 1150.1165 738.0238 1145.6211 726.64453 C 1137.5551 706.22724 1130.3912 681.65882 1128.7148 668.66602 C 1127.0458 655.73005 1128.1807 656.84226 1109.6777 650.04102 C 1084.0902 640.63565 1056.0589 631.15756 1036.4414 625.27734 C 1019.9754 620.34179 987.55954 612 984.84375 612 z M 299.45312 678.69336 C 298.42437 678.94669 294.63801 683.65747 289.85352 690.71289 C 270.31435 719.52618 260.65058 739.51579 256.0957 760.53906 C 251.8187 780.27988 251.89631 780.30229 265.33398 763.26367 C 276.98029 748.49647 285.01608 734.43039 290.62109 719 C 294.75123 707.62992 300.43369 682.5655 299.7207 678.86328 C 299.69144 678.71135 299.60009 678.65717 299.45312 678.69336 z M 235.5625 807.91016 C 234.67457 807.34166 230.72761 814.29047 223.99805 828.33398 C 194.86955 889.12053 184.89707 920.70011 181.36719 963.33398 C 178.7557 994.87548 180.00283 995.80121 187.19922 967.66406 C 193.7991 941.85915 205.5859 903.56132 214.58984 878.66602 C 229.66435 836.98599 230.59031 833.97924 235.41992 811 C 235.81407 809.12464 235.85848 808.09965 235.5625 807.91016 z M 348.66602 849.79883 C 347.25333 849.35408 337.36074 863.93858 324.11133 886 L 316.10352 899.33398 L 321.37891 899.74219 C 324.92038 900.01724 327.1036 900.98974 328.01953 902.70117 C 329.14957 904.81267 327.98141 907.14288 321.21875 916.26367 C 295.11132 951.47477 277.37338 992.47098 267.10352 1041.334 C 262.77307 1061.9379 262.23044 1089.5196 265.77734 1108.7891 C 272.03129 1142.765 283.04435 1172.0181 296.41992 1190.1875 L 302.29492 1198.1699 L 298.5293 1202.3848 L 294.76367 1206.5996 L 299.86719 1215.6328 C 310.56903 1234.5745 318.48158 1256.6269 322.17773 1277.8184 C 325.06332 1294.3624 324.00387 1329.9425 320.08203 1348.2402 C 314.78678 1372.9457 301.70428 1399.7163 284.33398 1421.3848 C 279.01733 1428.0171 274.66602 1433.7836 274.66602 1434.1992 C 274.66602 1434.6147 281.41602 1434.7047 289.66602 1434.4004 C 302.03089 1433.9444 305.83849 1433.2854 311.33398 1430.6426 C 321.54174 1425.7338 330.35762 1415.8951 338.19727 1400.666 C 365.51106 1347.6067 369.80496 1290.1151 350.06836 1241.7051 C 343.77503 1226.2687 336.88532 1215.01 323.39648 1198.1172 C 303.19945 1172.8235 292.08378 1145.01 287.94531 1109.4121 C 284.52317 1079.9759 290.47269 1052.8892 305.68164 1028.666 C 312.63128 1017.5973 326.03986 1002.2076 331.82031 998.66602 C 337.90542 994.93769 338.96284 992.33083 344.79492 966.66602 C 350.94645 939.59547 352.56488 923.98053 352.39453 893.33398 C 352.23248 864.17909 351.06452 850.55395 348.66602 849.79883 z M 241.19141 851.62305 C 238.93906 853.90789 223.59478 886.20539 217.41406 901.66992 C 191.68571 966.04389 182.73067 1043.1139 195.24609 1092.4512 C 199.18553 1107.981 204.83482 1120.3434 217.30664 1140.7168 C 230.24385 1161.8506 252.27198 1207.6594 258.67578 1226.748 C 267.15527 1252.0241 269.79918 1266.9542 269.87891 1290 C 269.96771 1315.6743 266.89826 1330.1774 256.54492 1352.9883 C 252.0881 1362.8078 239.96743 1381.2357 230.96875 1391.875 L 226 1397.75 L 236.23047 1396.8281 C 241.85757 1396.3213 249.95758 1395.0142 254.23047 1393.9238 C 267.20041 1390.6141 278.37988 1384.3369 287.44922 1375.2676 C 297.2785 1365.4383 298.80007 1362.7593 303.43555 1347.125 C 312.22589 1317.4775 307.44107 1266.9004 292.88477 1235.5918 C 290.43212 1230.3165 283.71174 1219.7 277.94922 1212 C 237.03722 1157.3326 219.95785 1119.9277 212.80859 1069.334 C 205.15365 1015.1616 212.0937 968.27467 236.78711 907.33398 C 241.5415 895.60067 246.40174 883.54953 247.58789 880.55469 C 249.67453 875.28628 249.62256 874.71227 245.98242 862.8457 C 243.91317 856.10011 241.75703 851.04927 241.19141 851.62305 z M 1067.6348 880.29492 C 1067.4421 880.24167 1067.3015 880.25316 1067.2188 880.33594 C 1066.8518 880.703 1068.6343 891.42741 1071.1797 904.16797 C 1073.7252 916.90853 1076.7557 934.83334 1077.9141 944 C 1080.4155 963.79413 1082.7177 1001.9313 1081.9316 1010.5527 C 1081.625 1013.915 1080.7127 1023.866 1079.9043 1032.666 C 1077.3653 1060.3053 1073.9518 1076.9437 1064.4336 1108.0781 L 1059.7227 1123.4922 L 1066.2344 1132.0957 C 1069.8166 1136.8284 1074.8052 1145.3807 1077.3184 1151.0996 C 1081.5593 1160.7495 1082.3324 1161.689 1088.0859 1164.1641 C 1091.4956 1165.6309 1096.6221 1169.2312 1099.4766 1172.1641 C 1103.6635 1176.4659 1104.7278 1177.0302 1104.9824 1175.082 C 1105.156 1173.7538 1106.4908 1158.5674 1107.9492 1141.334 C 1113.9875 1069.985 1114.8029 1008.4273 1110.166 974 C 1106.1031 943.83449 1098.7863 919.14466 1089.2227 903.33203 C 1085.0489 896.43113 1070.5251 881.09367 1067.6348 880.29492 z M 334.54688 1017.334 C 332.20796 1017.334 320.8848 1032.1077 315.93555 1041.6172 C 307.32805 1058.1557 304.94256 1069.2019 304.91602 1092.666 C 304.89132 1114.5465 306.58816 1125.107 313.48438 1146 C 317.68488 1158.726 329.7144 1181.6198 339.75586 1196 C 351.92633 1213.4291 355.74614 1219.5476 360.98438 1230 C 371.58845 1251.1594 376.1377 1268.0507 378.67578 1295.6953 C 380.65504 1317.2534 376.49415 1352.1043 369.55664 1372.084 C 362.72431 1391.7608 353.22974 1409.7988 342.33203 1423.8027 C 337.63794 1429.8347 336.15279 1432.686 337.17188 1433.7051 C 337.95891 1434.4922 342.66701 1436.231 347.63477 1437.5703 C 358.88086 1440.6022 371.6831 1440.1105 380.25586 1436.3184 C 387.55176 1433.091 397.69168 1424.135 402.30469 1416.8418 C 407.1232 1409.2237 411.98303 1388.3481 412.89844 1371.334 C 414.47899 1341.9573 409.22433 1293.4593 400.48438 1256.7559 C 394.54018 1231.7931 387.28698 1213.2207 369.95898 1178.5859 C 345.61806 1129.9341 339.61378 1114.0644 335.18359 1086.6816 C 332.96063 1072.9417 332.53842 1038.0531 334.4375 1025 C 335.05098 1020.7833 335.10059 1017.334 334.54688 1017.334 z M 1054.6348 1137.9805 C 1053.3109 1137.1623 1044 1154.6574 1044 1157.9629 C 1044 1159.0795 1046.1616 1163.0046 1048.8047 1166.6836 C 1054.7228 1174.9211 1059.353 1188.2514 1061.3828 1202.8984 C 1063.3275 1216.9304 1062.087 1248.6441 1058.5879 1274.3223 C 1055.3544 1298.051 1055.364 1303.2723 1058.6738 1317.0801 C 1063.8248 1338.5664 1072.7516 1351.426 1085.1699 1355.25 C 1093.5011 1357.8155 1097.0741 1357.7557 1106.2148 1354.9023 C 1129.0496 1347.7743 1146.2019 1325.4494 1137.9238 1313.6309 C 1135.547 1310.2375 1132.419 1309.8573 1128.6309 1312.5039 C 1127.1844 1313.5145 1123.028 1315.3484 1119.3945 1316.5801 C 1113.2737 1318.655 1112.3716 1318.6606 1107.123 1316.6562 C 1087.7844 1309.2708 1077.7699 1274.1954 1074.7715 1203.334 C 1073.4017 1170.9608 1071.8917 1164.4691 1062.0664 1148.7051 C 1058.6477 1143.22 1055.3036 1138.3938 1054.6348 1137.9805 z M 1037.1211 1170.2363 C 1035.6732 1170.404 1034.3289 1172.7146 1030.6973 1179.9375 C 1006.7991 1227.4686 981.40831 1288.5894 978.89062 1304.6445 C 977.85242 1311.2651 978.0205 1312.1819 980.75 1314.7461 C 984.70994 1318.4663 991.13182 1330.7722 994.10352 1340.334 C 996.03606 1346.5523 997.0296 1348 999.35547 1348 C 1000.9327 1348 1002.509 1347.7138 1002.8594 1347.3633 C 1003.2099 1347.0129 1003.0058 1342.3622 1002.4062 1337.0293 C 1001.1353 1325.7241 1003.1302 1301.4658 1006 1293.332 C 1009.5739 1283.2023 1016.1208 1276.269 1019.9043 1278.6074 C 1021.3487 1279.5001 1021.2381 1281.943 1019.2852 1292.1816 C 1016.0982 1308.8907 1016.0002 1344.5728 1019.1035 1358.2949 C 1023.6314 1378.3162 1032.4105 1394.0142 1046.0527 1406.4824 C 1054.9089 1414.5765 1058.6428 1416.6962 1071.334 1420.8359 C 1083.2872 1424.7349 1095.8335 1424.925 1103.7637 1421.3262 C 1108.1 1419.3583 1109.3571 1418.1275 1108.8398 1416.3555 C 1105.3756 1404.4882 1107.5279 1389.6318 1115.1191 1373.0176 L 1119.832 1362.7012 L 1114.916 1364.8379 C 1098.7636 1371.8586 1084.5849 1372.6912 1073.6816 1367.2578 C 1061.4229 1361.149 1053.4507 1349.6451 1047.6855 1329.7461 C 1045.0325 1320.5892 1044.6766 1316.4401 1044.7402 1295.334 C 1044.7872 1279.6346 1045.616 1266.0302 1047.1348 1256 C 1049.825 1238.2328 1050.2677 1203.1751 1047.9629 1190.4648 C 1046.201 1180.7487 1042.4186 1172.6733 1038.6934 1170.6797 C 1038.0993 1170.3617 1037.6037 1170.1804 1037.1211 1170.2363 z M 1087.9004 1179.334 L 1088.584 1188.666 C 1088.9597 1193.7993 1089.6193 1206.1 1090.0508 1216 C 1091.264 1243.8394 1094.2717 1265.7593 1098.6816 1278.9219 C 1102.8443 1291.3469 1107.7369 1300.2748 1111.627 1302.5391 C 1115.1489 1304.5891 1120.9146 1304.2843 1125.7324 1301.7949 C 1130.7262 1299.2145 1133.2318 1296.2809 1133.291 1292.9434 C 1133.314 1291.629 1130.3399 1281.7289 1126.6816 1270.9434 C 1123.0233 1260.1579 1117.3246 1241.8072 1114.0176 1230.1641 C 1107.5781 1207.4926 1101.5621 1194.5591 1093.0312 1185.0508 L 1087.9004 1179.334 z M 1173.2617 1186.0938 C 1173.1691 1186.0371 1173.0964 1186.0481 1173.0488 1186.1309 C 1172.6679 1186.7927 1171.0502 1191.3163 1169.4531 1196.1836 L 1166.5488 1205.0332 L 1173.8926 1218.1836 C 1194.6216 1255.3084 1202.7742 1299.2489 1196.5234 1340.1504 C 1190.8417 1377.3282 1195.4997 1402.1081 1211.5176 1419.9238 C 1214.8523 1423.6329 1217.6756 1426.6651 1217.791 1426.6641 C 1217.9064 1426.6641 1218.0532 1419.3143 1218.1172 1410.332 C 1218.2245 1395.2681 1218.628 1392.7582 1223.3184 1378 C 1234.5756 1342.5794 1234.9076 1341.1545 1235.6172 1325.334 C 1236.3574 1308.8307 1234.3295 1297.808 1225.9277 1272.666 C 1219.2938 1252.8141 1211.8879 1240.4117 1200.3555 1229.8398 C 1188.7269 1219.1799 1182.5235 1209.808 1177.2988 1195.0059 C 1175.5867 1190.1552 1173.9097 1186.4906 1173.2617 1186.0938 z M 640.57422 1196.2129 C 631.25302 1196.2159 622.57908 1196.7342 615.98438 1197.8184 C 589.79522 1202.1236 575.37153 1207.5771 554.69531 1220.998 C 519.09966 1244.1032 498.56778 1279.2342 494.61133 1323.8047 C 493.91832 1331.6116 493.71749 1344.3 494.16406 1352 C 495.76447 1379.5946 490.59694 1409.8405 480.95117 1429.334 C 473.95566 1443.4716 474.30268 1442.666 475.19141 1442.666 C 475.60245 1442.666 479.90575 1441.1744 484.75391 1439.3496 C 497.85536 1434.4182 508.37717 1428.4373 513.66797 1422.9141 C 521.15329 1415.0999 526.99116 1392.5646 532.03906 1352 C 536.60543 1315.3049 541.47291 1299.4045 552.97266 1283.627 C 558.08522 1276.6126 563.1915 1273.334 569 1273.334 C 572.69235 1273.334 576 1275.3755 576 1277.6562 C 576 1278.2743 573.38359 1281.6047 570.18555 1285.0566 C 555.01409 1301.4324 550.09735 1316.4875 544.61914 1363.334 C 543.41856 1373.6007 541.5768 1386.1398 540.52734 1391.1992 C 539.47789 1396.2585 538.94728 1400.7246 539.34766 1401.125 C 540.56019 1402.3375 558.5356 1383.8662 564.26953 1375.5156 C 571.58614 1364.86 575.52975 1355.727 585.93164 1325.334 C 598.27562 1289.2666 604.42558 1276.9198 614.66211 1267.6562 C 628.19261 1255.4119 644 1252.656 644 1262.543 C 644 1266.6009 643.46415 1266.9752 635.29102 1268.6094 C 630.34765 1269.5978 621.10299 1275.5705 617.57422 1280.0566 C 612.616 1286.3599 607.12086 1296.702 604.32031 1305 C 602.77345 1309.5833 601.76394 1313.334 602.07617 1313.334 C 602.38841 1313.334 605.30226 1311.3038 608.55078 1308.8242 C 611.90298 1306.2654 617.52996 1303.6015 621.5625 1302.6621 C 631.35868 1300.3802 638.07486 1296.403 640.43945 1291.4844 C 641.53688 1289.2016 644.27307 1283.3857 646.52148 1278.5605 C 651.08577 1268.7653 655.69286 1265.2163 659.23828 1268.7617 C 661.46664 1270.9901 661.3283 1271.5237 654.79102 1285.9414 C 652.51005 1290.972 650.84528 1295.2887 651.0918 1295.5352 C 651.33832 1295.7818 656.84518 1292.8378 663.33008 1288.9922 C 680.28205 1278.9395 693.24369 1265.9316 699.59375 1252.5996 C 704.44487 1242.4146 704.63658 1241.4773 704.5 1228.666 C 704.4212 1221.2775 703.51529 1212.6588 702.4668 1209.334 L 700.57422 1203.334 L 685.95312 1200.2617 C 673.44317 1197.6338 656.10955 1196.2079 640.57422 1196.2129 z M 232.5293 1198.4258 C 231.97934 1198.7608 233.08197 1203.7516 236.03906 1217.334 C 238.37269 1228.0528 239.10237 1235.7084 239.15039 1250 C 239.27857 1288.1528 229.00869 1315.1491 205.60742 1338.1738 C 194.11175 1349.4845 192.76341 1348.6909 220 1346.6328 C 229.89999 1345.8847 239.05967 1344.9426 240.35547 1344.5391 C 243.36532 1343.6018 246.08686 1337.1779 250.12305 1321.4785 C 256.1178 1298.161 255.80246 1263.2926 249.36914 1238.1387 C 246.16901 1225.6263 239.5572 1208.6885 235.26172 1202 C 233.78428 1199.6995 232.85927 1198.2248 232.5293 1198.4258 z M 782.79688 1198.9688 C 765.80345 1199.0594 745.83069 1200.078 736 1201.6914 L 726 1203.334 L 724.44141 1209.334 C 721.8649 1219.2477 722.28972 1238.5037 725.29883 1248.1934 C 728.20301 1257.5452 730.99107 1262.0991 743.70312 1278.248 C 754.7302 1292.2565 757.0971 1293.2452 783.33398 1294.8145 C 806.87157 1296.2224 814.13684 1298.0672 825.18555 1305.4453 C 837.62219 1313.7502 847.05181 1328.1375 856.79688 1353.6738 C 865.0695 1375.3518 871.6092 1386.367 883.31445 1398.334 C 891.61734 1406.8227 894.90851 1409.334 897.73047 1409.334 L 901.38672 1409.334 L 898.85742 1404.334 C 893.96976 1394.6786 886.77436 1373.6818 882.08398 1355.3828 C 878.77818 1342.4855 875.27588 1332.7334 870.48828 1323.0996 C 864.46502 1310.9794 861.97571 1307.6318 850.07617 1295.6484 C 842.62246 1288.1422 828.46971 1275.7 818.625 1268 C 787.31402 1243.5102 779.9883 1235.2245 777.96289 1222 C 777.02345 1215.8661 779.41663 1211.3482 782.89648 1212.6836 C 784.08397 1213.1393 786.92784 1217.3153 789.2168 1221.9648 C 794.29667 1232.2835 803.95382 1242.3185 818.79688 1252.6992 C 862.2378 1283.0803 876.9339 1297.9057 886.07227 1320.5684 C 888.63428 1326.9222 893.93211 1342.7432 897.8457 1355.7266 C 906.29755 1383.7656 910.07998 1393.3232 916.62891 1403.1895 C 924.81476 1415.522 934.93655 1422.4943 949.94531 1426.1406 C 958.96437 1428.3317 961.69605 1428.3374 964.66016 1426.1699 C 967.04784 1424.424 966.9361 1424.0734 962.25586 1418.6055 C 953.65495 1408.5573 949.72279 1396.1125 934.67578 1331.334 C 925.73481 1292.8424 913.09528 1263.7516 897.44727 1245.6523 C 874.46888 1219.0743 846.92739 1205.0852 807.33398 1199.8809 C 802.11701 1199.1951 792.99293 1198.9143 782.79688 1198.9688 z M 407.12109 1237.8672 C 407.07364 1237.849 407.03502 1237.8537 407.00781 1237.8809 C 406.71713 1238.1716 409.15994 1246.7316 412.43555 1256.9043 C 420.11711 1280.76 423.42538 1296.28 426.68164 1323.7402 C 428.13335 1335.9827 429.32481 1346.6291 429.32812 1347.3984 C 429.33112 1348.1678 431.33803 1349.5219 433.78906 1350.4082 C 436.24008 1351.2945 440.59139 1354.0553 443.45703 1356.543 C 446.32268 1359.0308 448.86073 1360.883 449.09766 1360.6582 C 449.3346 1360.4334 446.74685 1349.8436 443.34766 1337.125 C 436.08562 1309.953 427.99468 1283.0884 423.13086 1270 C 419.51862 1260.2796 408.59205 1238.4317 407.12109 1237.8672 z M 973.26562 1330.666 C 970.89076 1330.666 962.67618 1350.2771 961.29492 1359.2441 C 958.42605 1377.8683 965.19674 1401.5215 978.30273 1418.6582 C 984.16111 1426.3183 983.71692 1431.8852 976.73242 1438.334 C 972.35278 1442.3778 971.40423 1442.666 962.54492 1442.666 C 947.04259 1442.666 928.25284 1436.4723 913.99414 1426.6621 C 908.06951 1422.5858 907.71723 1422.5103 905.24023 1424.752 C 902.9601 1426.8155 902.00354 1426.8893 897.02734 1425.3984 C 877.31355 1419.492 857.39666 1393.6714 841.22852 1353.0586 C 838.22344 1345.5101 835.57783 1339.1442 835.35156 1338.9141 C 835.12528 1338.6839 831.12948 1341.103 826.4707 1344.2891 C 816.68134 1350.9838 805.3642 1355.014 787.7832 1358.0664 C 780.93618 1359.2552 774.56629 1360.4651 773.62891 1360.7539 C 772.5308 1361.0922 774.03478 1363.8693 777.85742 1368.5625 C 785.6473 1378.1264 791.28538 1390.2333 793.91406 1403.0469 C 796.3319 1414.8327 795.36727 1418.666 789.98438 1418.666 C 785.85157 1418.666 783.48862 1414.9765 780.82031 1404.3535 C 775.0205 1381.2634 761.77066 1366.6341 739.92188 1359.1973 C 722.08044 1353.1246 696.939 1353.5412 679.10156 1360.2051 C 663.7078 1365.9562 651.61535 1380.013 644.07422 1400.9199 C 639.25118 1414.2911 636.76988 1418.666 634.01562 1418.666 C 629.71252 1418.666 629.06061 1413.6635 631.89844 1402.4414 C 635.80447 1386.9951 640.19766 1378.3246 648.56836 1369.5488 L 655.91406 1361.8496 L 647.62305 1360.1504 C 636.66258 1357.9042 619.41656 1349.7288 607.77539 1341.2617 C 602.60543 1337.5014 597.93265 1334.9284 597.39258 1335.5449 C 596.85251 1336.1614 594.4626 1342.3493 592.08008 1349.2949 C 587.44305 1362.8129 581.25408 1373.2957 568.37109 1389.457 C 552.96934 1408.7781 544.23988 1416.9607 526.19922 1428.9883 C 509.5697 1440.075 469.93319 1461.334 465.89062 1461.334 C 464.85132 1461.334 464 1462.3953 464 1463.6934 C 464 1471.3135 474.64365 1500.0124 482.29883 1513.0352 L 486 1519.334 L 486.99414 1507.3945 C 488.18282 1493.1141 492.25535 1477.4499 496.80273 1469.666 C 499.51537 1465.0227 500.82506 1464 504.05664 1464 C 506.22572 1464 508 1464.2996 508 1464.666 C 508 1465.0323 507.03115 1470.8823 505.84766 1477.666 C 503.34841 1491.9916 503.94875 1512.0668 507.25195 1524.666 C 510.55182 1537.2524 520.38552 1555.6836 529.60938 1566.5684 C 534.22422 1572.0142 538.69701 1576.6957 539.54883 1576.9727 C 540.45915 1577.2687 539.42783 1572.3637 537.04688 1565.0723 C 531.73715 1548.812 531.17919 1532.0586 535.62305 1522.334 C 538.1932 1516.7097 538.992 1516 542.76367 1516 L 547.01172 1516 L 546.125 1526.334 C 544.98293 1539.6439 547.16103 1554.904 552.14844 1568.5391 C 557.64895 1583.5768 565.46319 1597.8976 568.47461 1598.457 C 573.38595 1599.3693 573.7557 1596.6152 570.17578 1585.7852 C 565.58857 1571.9077 562.66602 1557.4582 562.66602 1548.6543 C 562.66602 1542.9741 563.34164 1540.7031 565.9082 1537.7402 C 568.03117 1535.2894 569.58524 1534.4605 570.41602 1535.334 C 571.11349 1536.0674 572.87443 1542.6667 574.32812 1550 C 577.77468 1567.3865 584.12727 1582.4133 592.06641 1591.9531 C 598.42975 1599.5994 609.42415 1608 613.06641 1608 C 616.72167 1608 613.55812 1597.7374 599.29688 1563.3359 C 582.69338 1523.2844 577.27616 1508.5901 572.38477 1490.3262 C 565.45569 1464.4538 568.16777 1423.8979 577.93164 1407.375 C 584.34266 1396.5259 590.58131 1393.0771 594.73828 1398.0859 C 596.18681 1399.8313 595.89894 1401.3383 592.97656 1407.2969 C 585.1835 1423.1867 582.99987 1455.7745 587.99414 1481.6543 C 591.57684 1500.2194 597.49618 1517.218 610.63281 1546.666 C 616.68486 1560.2326 623.62731 1576.528 626.06055 1582.877 C 631.89172 1598.0919 638.25572 1624.2641 639.91016 1639.8418 C 640.64077 1646.721 641.51592 1652.6273 641.85547 1652.9668 C 642.88682 1653.9982 645.35089 1643.8439 646.23242 1634.9355 C 647.14913 1625.6717 649.60403 1622.666 656.25 1622.666 C 662.81214 1622.666 663.76569 1628.5388 660.47461 1648.666 L 659.82227 1652.666 L 664.24414 1647.7969 C 668.34776 1643.2776 673.25572 1632.4774 675.25781 1623.5605 C 675.91765 1620.6217 674.47764 1616.4978 668.74414 1604.8945 C 654.0853 1575.2286 648.88122 1552.0924 649.04688 1517.334 C 649.16181 1493.2179 652.617 1465.3898 656.51758 1457.1699 C 659.50617 1450.8719 664.69654 1448.3433 668.17383 1451.4902 C 671.34213 1454.3575 671.30318 1456.6863 667.76172 1476.4512 C 663.65753 1499.3566 663.6975 1531.0157 667.85547 1550.666 C 671.96698 1570.0966 678.30269 1588.4108 689.42188 1612.998 C 703.5074 1644.1447 706.61444 1652.4436 707.55469 1661.4395 L 708.40625 1669.584 L 714.31445 1660.459 C 717.56408 1655.4403 723.45766 1644.7326 727.41211 1636.666 C 735.08978 1621.0043 745.16155 1592.3984 748.77148 1576 C 751.75204 1562.4606 751.73909 1540.0551 748.74023 1522.252 C 746.87597 1511.1845 746.65723 1507.0829 747.79492 1504.5859 C 751.46928 1496.5216 757.80433 1503.5092 761.28711 1519.4668 C 768.3767 1551.9501 767.16476 1585.6039 758.12695 1607.2344 C 756.36054 1611.4621 756.47682 1612.3937 759.72852 1620.2266 C 762.6389 1627.2374 763.24079 1630.778 763.2832 1641.1426 L 763.33398 1653.6191 L 769.09766 1647.1426 C 777.49032 1637.7123 791.23474 1616.6992 796.58594 1605.1172 C 807.52279 1581.4458 812.11639 1554.4039 809.52539 1528.9414 C 808.68917 1520.7235 806.47684 1507.701 804.60938 1500.002 C 800.5489 1483.2616 800.66135 1478.1886 805.10938 1477.5586 C 809.45495 1476.9431 812.33398 1480.0215 817.10352 1490.3809 C 824.49757 1506.4406 825.9872 1514.4138 825.99414 1538 C 826.00114 1561.6818 824.3109 1572.1759 816.70508 1595.666 C 814.27127 1603.1826 812.7818 1609.334 813.39648 1609.334 C 815.65061 1609.334 829.54931 1590.0112 834.09961 1580.5508 C 844.02842 1559.9079 848.85126 1528.2564 846.60547 1498.4941 C 845.22943 1480.2583 843.29026 1467.2171 840.5918 1458.0547 C 839.09185 1452.9618 838.97801 1450.4296 840.0957 1447.043 C 841.66937 1442.2747 845.29723 1439.5591 848.4668 1440.7754 C 854.44067 1443.0678 862.15598 1473.4986 864.66406 1504.666 C 865.72089 1517.7989 863.50707 1540.4885 859.89453 1553.5527 C 855.48519 1569.4986 855.22854 1573.8945 858.51172 1577.1777 C 863.06136 1581.7273 869.54683 1580.9619 874.5293 1575.2871 C 878.39036 1570.8896 878.66833 1569.8853 878.67773 1560.2871 C 878.69923 1538.3641 881.01071 1531.5153 900.92969 1494.4004 L 907.1543 1482.8027 L 907.94727 1466.0801 C 908.82027 1447.6304 910.39855 1443.6676 915.73828 1446.5254 C 921.83575 1449.7886 923.65332 1467.9237 919.49414 1484 C 918.26094 1488.7667 912.71321 1501.8273 907.16602 1513.0234 C 901.61883 1524.2196 896.24419 1536.5202 895.22266 1540.3574 C 892.91109 1549.0403 892.81721 1564.8955 895.05078 1569.334 C 897.4908 1574.1828 903.77093 1574.5001 908.00781 1569.9902 C 910.84958 1566.9652 911.31269 1565.0902 911.62695 1555.3125 C 912.31899 1533.7806 920.52594 1503.3793 930.01953 1487.1797 C 936.23924 1476.5665 945.24125 1471.7365 949.41992 1476.7715 C 950.86903 1478.5176 950.78457 1480.319 948.91797 1487.3242 C 946.28625 1497.2007 946.27296 1497.334 947.95312 1497.334 C 950.08274 1497.334 952.18342 1492.1913 955.46289 1478.9473 C 958.94232 1464.8959 963.52951 1457.334 968.57227 1457.334 C 976.63183 1457.334 976.48778 1467.8 968.125 1489.9922 C 965.12792 1497.9455 962.9259 1504.7051 963.23242 1505.0117 C 963.53893 1505.3182 965.65693 1504.1881 967.9375 1502.502 C 976.87217 1495.8963 984.3239 1479.1296 986.7207 1460.2441 C 987.43582 1454.6093 988.38811 1432.2993 988.83594 1410.666 C 989.53692 1376.8035 989.34422 1370.0352 987.44922 1362 C 985.21696 1352.5348 975.31784 1330.666 973.26562 1330.666 z M 457.1582 1380.25 C 456.74305 1380.3744 457.21589 1382.9534 458.28125 1386.2578 C 459.64351 1390.483 460.57003 1400.0488 460.99805 1414.334 C 461.3551 1426.2507 462.09354 1436 462.64062 1436 C 463.1877 1436 465.15632 1432.5507 467.01367 1428.334 C 471.80681 1417.4523 475.59869 1401.7102 473.9707 1399.457 C 470.92438 1395.2406 458.20501 1380.6323 457.25391 1380.2578 C 457.21824 1380.2438 457.18588 1380.2417 457.1582 1380.25 z " />
    <path
       id="path8"
       style="fill:#ffcc00;display:inline"
       d="M 719.43164 106.66602 C 713.89961 106.66602 686.24258 141.18241 681.39648 154.13477 C 677.69871 164.01796 677.79625 173.89746 681.64453 179.51367 C 686.45012 186.52695 697.48623 191.50936 709 191.86523 L 713.33398 192 L 713.35156 169.66602 C 713.36156 157.38269 713.73345 145.97638 714.17773 144.31836 C 715.13471 140.74696 720.5249 139.00174 723.35156 141.34766 C 724.97561 142.6955 725.33398 147.45814 725.33398 167.67969 L 725.33398 192.36719 L 732.63867 191.50781 C 764.8822 187.71822 770.1048 168.67912 747.89844 135.875 C 740.0236 124.24196 722.89483 106.66602 719.43164 106.66602 z M 661.69141 197.70117 C 653.24871 197.86422 641.91434 202.82966 631.2168 211.45508 C 619.01608 221.29251 605.33398 234.1289 605.33398 235.73633 C 605.33398 237.39775 628.90241 255.40692 638.23633 260.87695 C 652.16143 269.03761 663.05333 270.80448 672.60352 266.45312 C 677.27304 264.32555 681.06071 256.78626 682.16016 247.43164 L 683.0332 240 L 656.99805 240 C 633.22458 240 630.68864 239.77633 627.81445 237.41992 C 624.7914 234.94147 624.76112 234.74346 627.04492 232.41992 C 629.15898 230.26907 632.44046 229.95518 656.61523 229.5918 L 683.80859 229.18164 L 683.11523 224.25781 C 681.34447 211.6648 676.5036 203.0417 669.03906 199.18164 C 666.99794 198.12613 664.50564 197.64682 661.69141 197.70117 z M 778.30859 197.70117 C 775.49436 197.64682 773.00206 198.12613 770.96094 199.18164 C 763.4964 203.0417 758.65553 211.6648 756.88477 224.25781 L 756.19141 229.18164 L 783.38477 229.5918 C 807.55954 229.95518 810.84102 230.26907 812.95508 232.41992 C 815.23888 234.74346 815.2086 234.94147 812.18555 237.41992 C 809.31136 239.77633 806.77542 240 783.00195 240 L 756.9668 240 L 757.83984 247.43164 C 758.53382 253.3363 762.87133 265.25584 764.36133 265.35352 C 764.52976 265.36452 767.06667 266.26978 770 267.36523 C 776.72516 269.87677 784.90707 269.00169 794.11719 264.78516 C 805.72588 259.47052 834.66602 238.62893 834.66602 235.58398 C 834.66602 234.10673 820.5204 220.91878 808.7832 211.45508 C 798.08566 202.82966 786.75129 197.86422 778.30859 197.70117 z M 712.10352 270.66602 L 710.67188 276.33398 C 705.3027 297.60443 692.48079 325.41529 679.91016 343.05469 C 675.31628 349.50092 666.06143 359.99964 659.34375 366.38672 C 615.98684 407.60993 566.03041 410.36008 513.67969 374.4043 C 501.89698 366.31163 476.93122 342.69475 465.87891 329.18555 C 461.75457 324.14438 457.81448 320.36956 457.12305 320.79688 C 456.43163 321.22419 453.13312 321.9692 449.79297 322.45312 L 443.7207 323.33398 L 439.84375 334 C 417.0214 396.81926 374.32183 439.35208 326.63477 446.76562 C 308.48695 449.58692 290.93972 446.38114 271.01562 436.60742 C 254.90021 428.70203 241.30821 418.27158 223.47461 400.12305 L 208.94727 385.33984 L 201.34961 389.00391 L 193.75195 392.66602 L 206.35547 418 C 225.39138 456.2631 253.46338 510.66602 254.17188 510.66602 C 254.51671 510.66602 256.56884 509.75164 258.73242 508.63281 C 260.896 507.51397 262.65688 506.16397 262.64453 505.63281 C 262.63223 505.10164 254.86699 490.61084 245.38867 473.43164 L 228.1543 442.19727 L 233.07617 438.52734 C 237.97849 434.87209 238.01113 434.8687 241.99805 437.31055 C 249.85534 442.12288 270.15896 451.74923 279.50195 455.0918 C 309.06107 465.66691 339.00635 465.23661 363.78711 453.88086 C 393.16544 440.41827 419.95113 409.98294 441.75195 365.29492 L 451.33398 345.65625 L 456.3418 345.125 C 461.08873 344.62234 461.69583 345.02071 467.98438 352.77148 C 490.4914 380.51188 522.60235 401.90119 554.2168 410.20898 C 572.96836 415.13661 597.77834 415.18623 616.06641 410.33398 C 641.14311 403.68055 659.49423 392.69949 680 372.07812 C 693.96082 358.03862 704.25784 344.04727 714.14062 325.68945 C 716.9961 320.38524 719.65745 316.03589 720.05469 316.02344 C 720.45192 316.01094 722.45252 319.44935 724.5 323.66602 C 741.03685 357.72269 767.55715 385.489 798 400.61914 C 829.1045 416.07812 859.99345 418.62509 892.63477 408.42188 C 906.12263 404.20576 926.00373 393.92202 938.05078 384.92969 C 947.61387 377.79146 966.77178 359.50866 974.78906 349.87109 C 978.90492 344.92342 979.80121 344.46657 984.30273 345.01367 C 989.23728 345.61341 989.33631 345.75026 998.56641 364.47656 C 1025.0464 418.20007 1055.0641 448.72519 1091.334 458.81445 C 1099.593 461.11186 1105.4618 461.76978 1117.334 461.73438 C 1141.3132 461.66288 1160.4489 456.52435 1188.4492 442.63672 C 1199.5334 437.13913 1202.12 436.3187 1204.498 437.55078 C 1211.2075 441.02707 1211.4603 440.15202 1193.957 474.10938 L 1177.2363 506.54883 L 1181.4082 508.70508 C 1183.7029 509.89174 1185.7938 510.65149 1186.0527 510.39258 C 1187.1148 509.33046 1246.7512 392.97855 1246.3906 392.67188 C 1246.1754 392.48873 1243.9007 391.28951 1241.334 390.00781 C 1238.7674 388.72612 1235.5797 386.72592 1234.252 385.56055 C 1232.0056 383.58882 1231.5986 383.76008 1228.3887 388.05273 C 1226.4915 390.58986 1219.1764 398.39113 1212.1328 405.38867 C 1157.9365 459.23058 1093.8483 460.78674 1044.9902 409.44531 C 1026.958 390.49649 1010.9326 363.78473 1000.082 334.5918 L 995.8418 323.18359 L 988.36328 321.61523 C 981.24886 320.12297 980.78433 320.19157 978.80273 323.02344 C 972.21403 332.43921 949.09352 356.34544 936.66602 366.59375 C 917.18311 382.66027 896.57268 393.70729 877.85742 398.11328 C 865.22851 401.08641 841.57905 400.06704 828.66602 395.99219 C 802.19469 387.63887 780.60567 371.39543 761.43164 345.41016 C 750.76625 330.95608 737.85837 304.7735 731.97852 285.66602 L 727.36133 270.66602 L 719.73242 270.66602 L 712.10352 270.66602 z M 991.90625 271.82812 C 979.00156 271.38751 967.86739 285.30543 974.46875 298.91406 C 979.8308 309.96789 991.20575 313.07013 1002.1914 306.47461 C 1013.6649 299.58617 1012.9655 281.94735 1000.9277 274.60742 C 997.95735 272.79627 994.88426 271.9298 991.90625 271.82812 z M 448.46289 272.18945 C 441.54638 272.20227 434.58147 275.61451 431.37695 282.20117 C 427.66718 289.82635 429.44354 300.44565 435.23242 305.25 C 438.16735 307.68578 446.99534 310.67292 449.10938 309.94531 C 450.08601 309.60917 452.04544 309.33398 453.46289 309.33398 C 454.88035 309.33398 458.23517 307.31976 460.91992 304.85938 C 465.29873 300.8465 465.85476 299.57803 466.30859 292.52734 C 466.71075 286.27931 466.24639 283.76236 464.04492 280.25391 C 460.63177 274.81437 454.5657 272.17815 448.46289 272.18945 z M 136.55859 290.5332 C 136.36704 290.53983 136.25131 290.58653 136.2207 290.67773 C 135.75651 292.06072 161.49762 341.33957 162.66602 341.30469 C 163.03268 341.29379 166.00012 339.47811 169.25977 337.26953 C 172.51941 335.06096 176.56942 332.90667 178.25977 332.48242 C 179.95011 332.05817 181.33398 331.43805 181.33398 331.10547 C 181.33398 330.77289 179.79006 327.24011 177.9043 323.25391 C 172.19197 311.17905 162.75836 302.10785 148.82422 295.29492 C 142.97386 292.43447 137.89949 290.48681 136.55859 290.5332 z M 1302.6465 290.70703 C 1299.335 290.57533 1286.9027 295.64319 1279.8809 300.18164 C 1272.1591 305.1725 1265.9017 312.85507 1261.2949 323.00391 C 1257.8246 330.64911 1257.9774 331.56352 1263 333.23242 C 1265.3833 334.02433 1269.134 336.14984 1271.334 337.95508 C 1273.534 339.76033 1275.7344 341.25879 1276.2246 341.28516 C 1276.7148 341.31156 1278.2945 339.38333 1279.7344 337 C 1286.6251 325.59486 1304.0538 291.60852 1303.3652 290.91992 C 1303.234 290.78865 1302.9891 290.72066 1302.6465 290.70703 z M 250.66602 308.77344 C 231.06379 308.85394 219.12308 311.10453 207.61914 316.88672 C 201.13392 320.14637 190.66602 328.71757 190.66602 330.76953 C 190.66602 331.38927 193.07461 332.54543 196.01758 333.33789 C 198.96054 334.13034 203.42618 336.58652 205.94141 338.79492 L 210.51367 342.80859 L 229.55078 334.66602 C 248.35249 326.62338 253.47729 325.64555 255.07031 329.79688 C 256.9137 334.60068 252.5738 337.98463 234.34961 345.94727 C 218.30904 352.95582 216.17911 354.25326 216.78125 356.65234 C 217.15808 358.15378 216.92441 362.84947 216.25977 367.08789 L 215.05078 374.79492 L 219.19141 373.9375 C 221.46922 373.46626 227.37065 371.7024 232.30469 370.01758 C 249.94551 363.99379 263.4108 353.91207 273.0332 339.52539 C 276.71169 334.02561 280.76544 326.38338 282.04102 322.54297 C 284.274 315.8201 284.26894 315.4944 281.88867 313.75391 C 276.79942 310.03255 268.44768 308.70046 250.66602 308.77344 z M 1189.334 308.81445 C 1171.5762 308.65685 1157.9944 311.39253 1156.4414 315.43945 C 1154.6867 320.01229 1166.5188 342.26299 1175.4609 351.20508 C 1182.4266 358.17078 1196.8296 366.53903 1208.8613 370.61328 C 1224.676 375.96853 1224.5428 375.98869 1223.5137 368.48047 C 1223.0473 365.07812 1222.666 360.34801 1222.666 357.96875 C 1222.666 353.70175 1222.4448 353.54844 1206.334 346.72266 C 1185.76 338.0059 1178.8988 331.20673 1187.4102 327.9707 C 1190.2628 326.88616 1193.9561 328.01186 1210.0215 334.85742 L 1229.2246 343.03906 L 1233.9277 338.9082 C 1236.5149 336.63665 1241.0394 334.13034 1243.9824 333.33789 C 1246.9254 332.54543 1249.334 331.36668 1249.334 330.71875 C 1249.334 328.58281 1238.2279 319.98542 1231.1328 316.62891 C 1219.7712 311.25401 1207.588 308.97645 1189.334 308.81445 z M 720.23633 343.99414 C 718.95249 343.63696 717.53228 346.22402 716.86914 350.37109 C 715.44421 359.28214 708.03893 371.97857 698.7793 381.38867 C 685.94902 394.42745 668.0779 405.39054 644.38281 414.75977 C 638.67185 417.01793 633.54331 419.30877 632.98438 419.84961 C 632.42544 420.39045 639.32415 419.81759 648.31641 418.57617 C 657.30868 417.33473 673.45457 415.647 684.19531 414.82617 C 720.96082 412.01646 759.87215 413.19529 791.78711 418.08789 C 799.37032 419.25041 805.7947 419.98264 806.0625 419.71484 C 806.33029 419.44705 799.77663 416.3978 791.5 412.9375 C 771.40363 404.53561 754.96184 394.56668 743.46484 383.81445 C 732.52832 373.5864 726.29457 363.94588 723.41016 352.79883 C 722.29032 348.47116 721.10449 344.66112 720.77539 344.33203 C 720.60019 344.15683 720.41973 344.04517 720.23633 343.99414 z M 982.06836 357.4707 C 981.17541 357.30392 979.25012 359.74768 976.07617 364.98828 C 970.23561 374.63181 953.71804 391.96567 943.24414 399.44336 C 925.96421 411.78011 907.26497 419.60851 882.66602 424.80273 C 874.96602 426.42863 869.86733 427.81573 871.33398 427.88477 C 909.47087 429.67999 946.52495 433.35018 975.33398 438.1875 C 996.94621 441.8164 1034.9691 451.13202 1050 456.48047 C 1059.8877 459.99881 1061.334 460.36881 1061.334 459.38281 C 1061.334 459.04347 1057.5833 456.22959 1053 453.12891 C 1041.2311 445.1671 1023.6547 427.16955 1010.8809 410 C 1000.7614 396.3982 982.66602 363.88139 982.66602 359.29883 C 982.66602 358.16224 982.47424 357.54652 982.06836 357.4707 z M 457.7207 358.26953 C 457.33412 358.41797 455.12815 363.21929 452.81836 368.9375 C 440.29481 399.94143 410.71923 437.41137 386.33398 453.16602 C 373.89421 461.20303 374.01331 461.4349 388.09961 456.60352 C 433.42228 441.05853 504.32242 429.38759 553.66602 429.34766 C 564.10128 429.33966 570.66602 428.81845 570.66602 428 C 570.66602 427.26667 568.93036 426.66602 566.80859 426.66602 C 559.05608 426.66602 531.74747 418.71667 519.38672 412.86133 C 495.48659 401.53973 477.36692 386.36722 464.19922 366.64844 C 461.02298 361.89198 458.10727 358.12108 457.7207 358.26953 z M 714.58008 432.34375 C 648.53503 433.06341 549.23776 440.65628 479.33398 450.74414 C 410.55241 460.67006 327.62287 486.97075 263.66602 519.14062 C 242.45419 529.81004 239.33398 532.75051 239.33398 542.06836 C 239.33398 549.08346 243.7472 554.38871 250.83008 555.88672 C 257.30406 557.25594 261.50908 555.98108 278.19141 547.5918 C 361.45935 505.71778 452.68303 479.70461 554.66602 468.75391 C 593.84318 464.54716 608.87845 463.83151 682 462.68359 C 826.69985 460.412 896.23222 465.74078 989.33398 486.24219 C 1047.1728 498.97854 1098.0341 516.80248 1154.5371 544.13281 C 1173.1981 553.15908 1180.3817 555.99793 1184.5371 555.99414 C 1200.446 555.97964 1206.5063 538.83225 1194.248 528.51758 C 1184.5442 520.35225 1126.555 494.33599 1090.6719 482.04883 C 1003.3904 452.16181 889.76849 436.06768 740.66602 432.46875 C 732.7709 432.27818 724.01509 432.24094 714.58008 432.34375 z M 244.72656 449.63281 C 244.63034 449.63855 244.55764 449.66502 244.51172 449.71094 C 244.14438 450.07828 248.45309 458.69282 254.08594 468.85547 C 268.40011 494.68081 270.70414 498.66602 271.31836 498.66602 C 271.61466 498.66602 279.43713 495.63694 288.70312 491.93359 C 302.11142 486.5747 324.95738 478.1322 351.85742 468.5957 C 352.87905 468.23352 353.47618 467.6969 353.18359 467.4043 C 352.891 467.11171 348.75455 467.83832 343.99219 469.01758 C 330.50281 472.35782 299.73109 471.92345 286 468.19922 C 275.04515 465.22799 256.14393 456.84921 249.13086 451.85547 C 247.22974 450.50175 245.40014 449.59263 244.72656 449.63281 z M 1194.4199 450.66602 C 1193.6819 450.66602 1191.3823 451.87441 1189.3105 453.34961 C 1181.9506 458.59043 1165.7906 465.37142 1152.8184 468.66211 C 1137.3552 472.58466 1117.8146 473.07888 1100.666 469.98047 C 1094.7993 468.92048 1089.3993 468.05179 1088.666 468.05078 C 1087.9326 468.04978 1097.5333 471.54482 1110 475.81836 C 1136.9337 485.05113 1159.6642 493.96213 1163.2539 496.69531 C 1164.6774 497.77913 1166.4774 498.65802 1167.2539 498.64648 C 1168.0304 498.63498 1174.7637 487.83493 1182.2148 474.64648 C 1189.666 461.45804 1195.1579 450.66602 1194.4199 450.66602 z M 713.62109 476.64648 C 675.98566 476.78267 638.2537 477.62123 620 479.08984 C 499.43411 488.79007 408.11703 508.4889 330.87695 541.46094 C 308.82526 550.87431 283.90137 564.29196 280.83398 568.40039 C 279.27419 570.48957 277.98502 574.8322 277.62109 579.2207 C 277.05943 585.99361 277.32141 586.86047 281.07031 590.60938 C 287.58631 597.12537 292.47912 596.34756 313.5293 585.45117 C 399.19854 541.10541 508.55622 515.53444 645.33398 507.86523 C 681.51401 505.83661 792.77469 507.07284 828 509.89453 C 951.98233 519.82601 1033.4328 540.37563 1121.1387 583.85547 C 1138.5884 592.50611 1144.1348 594.66602 1148.8945 594.66602 C 1156.5083 594.66602 1159.3621 593.07957 1161.1914 587.83203 C 1162.8867 582.96872 1161.527 576.43035 1157.4355 569.77539 C 1154.4631 564.94067 1142.311 557.47867 1120.6875 547.20898 C 1044.5604 511.05378 941.72414 488.52509 806.66602 478.41406 C 788.79496 477.07616 751.25653 476.5103 713.62109 476.64648 z M 721.79883 520.08594 C 586.0786 519.72164 452.49169 543.03019 344.39844 587.83398 C 308.04421 602.90252 293.53452 612.22854 290.74805 622.32031 C 288.94517 628.84981 291.24302 635.31492 296.5293 638.58203 C 303.56195 642.92845 311.21161 642.21665 325.60742 635.87305 C 426.71688 591.31853 521.9941 567.36933 633.33398 558.52539 C 658.58953 556.51929 730.71739 556.5185 758.66602 558.52344 C 864.65858 566.12621 966.35967 587.67641 1086.666 628.02539 C 1110.4993 636.01874 1131.6688 642.58343 1133.709 642.61328 C 1135.7492 642.64318 1139.4514 641.81722 1141.9355 640.7793 C 1144.4196 639.74139 1147.1002 637.68171 1147.8926 636.20117 C 1149.9111 632.42961 1149.686 624.54917 1147.4355 620.19727 C 1144.0472 613.64474 1133.6614 605.46419 1121.7012 599.92383 C 1061.8511 572.19919 981.27553 548.11828 906 535.46094 C 845.62111 525.30841 783.48984 520.25153 721.79883 520.08594 z " />
    <path
       style="fill:#0000ff"
       d="m 1262.4027,379.46984 c 12.0459,-6.22918 13.855,-22.28457 3.5323,-31.34804 -3.912,-3.43483 -5.8089,-4.1218 -11.3809,-4.1218 -3.6776,0 -8.4833,0.92913 -10.6793,2.06473 -11.8964,6.15189 -12.3789,25.60197 -0.8101,32.65592 5.0346,3.06972 14.1664,3.42351 19.338,0.74919 z"
       id="path9" />
    <path
       style="fill:#ff0000"
       d="m 195.67885,378.67387 c 16.70673,-10.18622 9.84469,-35.11831 -9.66559,-35.11831 -15.05865,0 -24.2168,16.77805 -16.00176,29.31579 5.30897,8.10251 17.40874,10.83786 25.66735,5.80252 z"
       id="path10" />
    <path
       style="fill:#008000"
       d="m 734.66667,254.24317 c 7.31258,-3.68257 14.15138,-13.22994 15.38919,-21.48424 1.93273,-12.88836 -6.11084,-26.92998 -18.34637,-32.02716 -7.0633,-2.94249 -17.69867,-2.63095 -24.62347,0.72129 -21.29682,10.30961 -21.94583,41.91666 -1.08602,52.88903 9.48579,4.98958 18.62492,4.95804 28.66667,-0.0989 z"
       id="path11" />
  </g>
</svg>
